<?xml version="1.0" encoding="UTF-8"?>
<svg version="1.1" xmlns="http://www.w3.org/2000/svg" width="1080" height="1080">
<path d="M0 0 C3.80973204 0.01073714 7.61899281 0.00001352 11.42871094 -0.01269531 C32.70960071 -0.02518591 53.95973019 1.01335654 75.06152344 3.88574219 C76.87861816 4.13287964 76.87861816 4.13287964 78.73242188 4.38500977 C173.90797641 18.06425666 265.74064483 56.38470744 344.17431641 119.92773438 C345.65940782 121.13689022 347.15854148 122.32874826 348.65917969 123.51855469 C356.13678884 129.48742679 363.05025121 136.00009813 370.00097656 142.56347656 C372.15510724 144.58282884 374.3372464 146.56923457 376.52587891 148.55102539 C385.09676782 156.31652915 393.47767741 164.33145963 400.97949219 173.14746094 C402.8604325 175.31715968 404.80067082 177.42539908 406.75439453 179.52954102 C412.3656259 185.57792424 417.65494023 191.81714399 422.81152344 198.26074219 C423.73392719 199.39158175 424.65714539 200.52175733 425.58105469 201.65136719 C459.03254622 242.7400335 485.72755267 289.39171297 505.65380859 338.41601562 C506.65389087 340.87340885 507.67252656 343.32180135 508.69824219 345.76855469 C524.90074237 385.11682199 534.41932534 427.88752247 540.12402344 469.94824219 C540.34481567 471.57113159 540.34481567 471.57113159 540.57006836 473.22680664 C541.03513282 476.90024439 541.44064867 480.57685561 541.81152344 484.26074219 C541.897659 485.10953949 541.98379456 485.95833679 542.07254028 486.83285522 C543.8039812 504.46066383 544.1733657 521.99410284 544.12402344 539.69824219 C544.12209873 541.07367949 544.12025835 542.44911692 544.11849976 543.82455444 C544.08020156 564.44709868 543.52438531 584.79412189 540.81152344 605.26074219 C540.64297657 606.59286318 540.47502055 607.92505904 540.30761719 609.25732422 C533.7727451 660.56178229 519.58704741 710.92161616 498.81152344 758.26074219 C498.43286133 759.13617676 498.05419922 760.01161133 497.6640625 760.91357422 C492.28149593 773.34762979 486.3211783 785.380047 479.81152344 797.26074219 C479.33231445 798.14068848 478.85310547 799.02063477 478.359375 799.92724609 C466.89511827 820.89310849 454.37892141 841.29574679 439.81152344 860.26074219 C438.97533011 861.36080819 438.13939233 862.46106848 437.30371094 863.56152344 C435.24911585 866.25732576 433.1754614 868.93767761 431.09277344 871.61181641 C429.75354383 873.33536 428.42307979 875.06546088 427.09277344 876.79589844 C421.99250024 883.39736042 416.73736743 889.71178538 411.06152344 895.83105469 C409.18359449 897.85895712 407.36128829 899.91401614 405.56152344 902.01074219 C395.13663921 913.98826875 384.20808096 925.90254758 372.12792969 936.22558594 C369.6430942 938.40872133 367.23312662 940.6594809 364.82250977 942.92382812 C358.36054994 948.99040495 351.7504301 954.73966354 344.81152344 960.26074219 C343.67120029 961.19181016 342.53193604 962.12417605 341.39355469 963.05761719 C332.17298034 970.58277969 322.63440321 977.5442991 312.81152344 984.26074219 C312.08030273 984.76105957 311.34908203 985.26137695 310.59570312 985.77685547 C293.42276444 997.47747138 275.77604189 1008.05240243 257.44873047 1017.84375 C255.0371941 1019.13948756 252.63958465 1020.45725221 250.24511719 1021.78417969 C202.28831723 1048.08443644 148.42647899 1063.80344345 94.81152344 1073.26074219 C93.13558105 1073.55658203 93.13558105 1073.55658203 91.42578125 1073.85839844 C63.71641296 1078.64829226 36.03905097 1080.79185653 7.95703125 1080.65185547 C4.50247746 1080.6347648 1.04861791 1080.64496719 -2.4059124 1080.66217804 C-88.72414814 1081.02552988 -175.64608884 1058.0041153 -333.18847656 963.26074219 C-334.16945313 962.47570312 -335.15042969 961.69066406 -336.16113281 960.88183594 C-341.45239043 956.60268948 -346.58386148 952.1882537 -351.60644531 947.59667969 C-353.70645604 945.69682127 -355.82767018 943.83191761 -357.96582031 941.97558594 C-362.25697485 938.22879042 -366.42214959 934.35933753 -370.56347656 930.44824219 C-371.67601807 929.39830078 -371.67601807 929.39830078 -372.81103516 928.32714844 C-380.25029863 921.28574996 -387.62225327 914.23715507 -394.28613281 906.44433594 C-396.19539855 904.25279683 -398.15855812 902.11732403 -400.13598633 899.98730469 C-405.74432829 893.94061618 -411.05159453 887.7167895 -416.18847656 881.26074219 C-416.60033203 880.74850098 -417.0121875 880.23625977 -417.43652344 879.70849609 C-438.95661325 852.93782797 -457.68962583 824.16981958 -473.80371094 793.84960938 C-475.08369738 791.45663048 -476.3885778 789.07962649 -477.70410156 786.70605469 C-490.33849432 763.682087 -499.83062743 739.10840176 -508.18847656 714.26074219 C-508.54780273 713.20048828 -508.90712891 712.14023437 -509.27734375 711.04785156 C-520.23223513 678.51636768 -527.69120901 645.1054555 -532.50097656 611.13574219 C-532.64817139 610.10980957 -532.79536621 609.08387695 -532.94702148 608.02685547 C-535.90848045 585.67641793 -536.56394608 563.28122903 -536.50097656 540.76074219 C-536.49905144 539.38782767 -536.49721109 538.01491303 -536.49545288 536.64199829 C-536.45713151 516.03789571 -535.89891123 495.70905094 -533.18847656 475.26074219 C-533.0199297 473.9286212 -532.85197368 472.59642533 -532.68457031 471.26416016 C-528.66517585 439.70840027 -521.62563796 408.63075733 -512.18847656 378.26074219 C-511.66882324 376.58625 -511.66882324 376.58625 -511.13867188 374.87792969 C-502.47106416 347.28115491 -491.14206858 321.07558524 -478.18847656 295.26074219 C-477.6607666 294.20806152 -477.13305664 293.15538086 -476.58935547 292.07080078 C-466.43857497 271.94653192 -454.94676163 252.83334987 -442.18847656 234.26074219 C-441.69347656 233.53757813 -441.19847656 232.81441406 -440.68847656 232.06933594 C-434.01173588 222.34980979 -426.97637219 213.01581101 -419.51220703 203.88867188 C-417.64823223 201.59634727 -415.82758531 199.27038638 -414.00097656 196.94824219 C-410.67116976 192.78252953 -407.15961655 188.81143956 -403.55957031 184.87792969 C-401.634766 182.75335162 -399.74470878 180.60782874 -397.86425781 178.44433594 C-394.30427272 174.36678635 -390.64567312 170.39197511 -386.93847656 166.44824219 C-386.28806396 165.75609619 -385.63765137 165.0639502 -384.9675293 164.35083008 C-377.7213291 156.66816545 -370.43991907 149.04068001 -362.39160156 142.18652344 C-360.11427794 140.19588417 -357.91309178 138.13343467 -355.71191406 136.05932617 C-349.09245888 129.84084213 -342.17741175 124.1892534 -334.97998047 118.65820312 C-333.1769235 117.25173023 -331.40432222 115.81420723 -329.63769531 114.36230469 C-320.59832541 106.94645159 -311.17697349 100.26995742 -301.45605469 93.77734375 C-299.35517729 92.37223496 -297.26268399 90.95564229 -295.17285156 89.53417969 C-227.50661378 43.66781236 -148.32565691 14.8648288 -67.43847656 3.88574219 C-66.38466797 3.74233398 -65.33085937 3.59892578 -64.24511719 3.45117188 C-42.8950454 0.79694335 -21.49947106 -0.07172007 0 0 Z " fill="#0B0B0E" transform="translate(536.1884765625,-0.2607421875)"/>
<path d="M0 0 C1.4375 2.1875 1.4375 2.1875 2 4 C2.66 4 3.32 4 4 4 C4.19477739 5.62414378 4.38059458 7.24936423 4.5625 8.875 C4.66691406 9.77992188 4.77132812 10.68484375 4.87890625 11.6171875 C5 14 5 14 4 16 C3.34 16 2.68 16 2 16 C1.773125 16.61875 1.54625 17.2375 1.3125 17.875 C-0.68466926 21.10851214 -3.39242345 21.61253785 -7.00561523 22.48339844 C-9.45637654 23.00368063 -11.91212163 23.47796349 -14.375 23.9375 C-15.28459473 24.11007324 -16.19418945 24.28264648 -17.13134766 24.46044922 C-25.1402922 25.93409501 -33.1829508 27.0231565 -41.27099609 27.96069336 C-42.17930176 28.06905518 -43.08760742 28.17741699 -44.0234375 28.2890625 C-44.81669434 28.37881348 -45.60995117 28.46856445 -46.42724609 28.56103516 C-49.15071278 28.97582541 -49.15071278 28.97582541 -52.32324219 29.96386719 C-56.12765676 31.03597445 -59.90232605 31.72011154 -63.8046875 32.2890625 C-64.52810333 32.39721283 -65.25151917 32.50536316 -65.99685669 32.61679077 C-67.51757128 32.84261837 -69.03864723 33.06602474 -70.56005859 33.28710938 C-72.86296598 33.62324351 -75.16385646 33.97130567 -77.46484375 34.3203125 C-84.67298056 35.39154694 -91.69199061 36.31629198 -99 36 C-99 36.66 -99 37.32 -99 38 C-99.6612085 38.05534912 -100.32241699 38.11069824 -101.00366211 38.16772461 C-103.9820238 38.41965715 -106.95974625 38.67848502 -109.9375 38.9375 C-111.49887695 39.06801758 -111.49887695 39.06801758 -113.09179688 39.20117188 C-114.08115234 39.28818359 -115.07050781 39.37519531 -116.08984375 39.46484375 C-117.00628662 39.543396 -117.92272949 39.62194824 -118.86694336 39.70288086 C-120.97963826 39.77870751 -120.97963826 39.77870751 -122 41 C-125.20536362 41.47930671 -128.41058178 41.87206832 -131.62890625 42.25 C-135.11109275 42.40362705 -135.11109275 42.40362705 -138 44 C-139.42698845 44.27304265 -140.86466114 44.4907923 -142.3046875 44.68359375 C-143.19325439 44.80565186 -144.08182129 44.92770996 -144.99731445 45.0534668 C-145.94695068 45.18019775 -146.89658691 45.30692871 -147.875 45.4375 C-153.71520195 46.23649966 -159.52852153 47.03890853 -165.3125 48.1875 C-169.62035397 49.02016826 -173.61786811 49.16536347 -178 49 C-178 49.66 -178 50.32 -178 51 C-178.61085953 51.07072723 -179.22171906 51.14145447 -179.85108948 51.21432495 C-186.22748495 51.95376422 -192.60288778 52.70135368 -198.9777832 53.45361328 C-201.35481839 53.73303593 -203.73209626 54.01040236 -206.10961914 54.28564453 C-209.53337929 54.6823739 -212.95618923 55.08656906 -216.37890625 55.4921875 C-217.43646622 55.6131076 -218.49402618 55.73402771 -219.58363342 55.85861206 C-224.92473522 56.49907655 -229.83389385 57.45414388 -235 59 C-237.45760348 59.38308088 -239.92369385 59.71446826 -242.39453125 60 C-243.77540782 60.16652418 -245.1562667 60.333195 -246.53710938 60.5 C-248.68742308 60.75289092 -250.83802307 61.00293165 -252.98901367 61.25 C-255.08346105 61.49269708 -257.17645565 61.74578374 -259.26953125 62 C-261.13508667 62.2165625 -261.13508667 62.2165625 -263.03833008 62.4375 C-266.10784994 62.73268426 -266.10784994 62.73268426 -268 65 C-270.27694756 65.44777332 -272.575824 65.78605335 -274.87890625 66.0703125 C-275.56500473 66.15626678 -276.25110321 66.24222107 -276.95799255 66.33078003 C-278.41427937 66.51126668 -279.87109696 66.68751328 -281.32836914 66.85986328 C-283.53090482 67.12125042 -285.73120127 67.3973573 -287.93164062 67.67578125 C-294.97640902 68.54642558 -301.88866685 69.2399775 -309 69 C-309 69.66 -309 70.32 -309 71 C-320.17220813 72.6577258 -331.33292716 74.25070375 -342.57568359 75.35302734 C-346.08688998 75.42636462 -346.08688998 75.42636462 -349 77 C-354.36437132 78.00581962 -359.55299453 78.11116338 -365 78 C-365 78.66 -365 79.32 -365 80 C-366.23363281 80.07347656 -366.23363281 80.07347656 -367.4921875 80.1484375 C-373.59899924 80.55743875 -379.48971285 81.14161083 -385.46484375 82.47265625 C-388.33888581 83.07049243 -391.21865687 83.46396524 -394.125 83.875 C-398.63238809 84.60405122 -402.22660224 85.73380352 -406.18359375 88 C-408 89 -408 89 -410.390625 89.90625 C-420.60616516 94.18821294 -429.56920857 102.97110297 -434 113.125 C-434.33 114.07375 -434.66 115.0225 -435 116 C-435.66 116 -436.32 116 -437 116 C-437 116.99 -437 117.98 -437 119 C-437.66 119 -438.32 119 -439 119 C-439.12375 120.19625 -439.2475 121.3925 -439.375 122.625 C-440.52343388 131.63701589 -440.52343388 131.63701589 -443.47265625 134.359375 C-445.40751119 136.43773581 -445.84341638 138.20498223 -446.5625 140.9375 C-447.42942091 144.18478002 -448.39922908 147.03891731 -450 150 C-450.66 150 -451.32 150 -452 150 C-452 151.32 -452 152.64 -452 154 C-452.66 154 -453.32 154 -454 154 C-454.12375 154.845625 -454.2475 155.69125 -454.375 156.5625 C-455.02696959 160.14833277 -455.8472721 163.5418163 -457 167 C-457.66 167.33 -458.32 167.66 -459 168 C-459.68472665 169.88764903 -459.68472665 169.88764903 -460.125 172.0625 C-460.29257812 172.79597656 -460.46015625 173.52945313 -460.6328125 174.28515625 C-460.75398438 174.85105469 -460.87515625 175.41695312 -461 176 C-460.30519531 176.00257813 -459.61039063 176.00515625 -458.89453125 176.0078125 C-446.34744942 176.48488785 -433.52190721 180.03117752 -422 185 C-422 185.66 -422 186.32 -422 187 C-421.236875 187.144375 -420.47375 187.28875 -419.6875 187.4375 C-417 188 -417 188 -414 189 C-414.02320313 187.88882813 -414.04640625 186.77765625 -414.0703125 185.6328125 C-414.19009683 177.50759479 -414.15667609 169.89474157 -412 162 C-411.73574219 160.99453125 -411.47148438 159.9890625 -411.19921875 158.953125 C-410.48757916 156.29543783 -409.75450041 153.64578144 -409 151 C-408.34 151 -407.68 151 -407 151 C-406.67 149.35 -406.34 147.7 -406 146 C-405.34 146 -404.68 146 -404 146 C-403.79375 145.29875 -403.5875 144.5975 -403.375 143.875 C-401.6165622 140.19826641 -399.19571859 137.52704921 -396 135 C-395.34 135 -394.68 135 -394 135 C-394 134.34 -394 133.68 -394 133 C-392.06827139 131.51941177 -390.18546683 130.21674582 -388.125 128.9375 C-387.54016846 128.57333984 -386.95533691 128.20917969 -386.3527832 127.83398438 C-381.26597732 124.83824402 -376.84897488 123.78875034 -371 124 C-371 123.34 -371 122.68 -371 122 C-370.35933594 121.87882812 -369.71867188 121.75765625 -369.05859375 121.6328125 C-363.951954 120.64344861 -358.99424095 119.4688944 -354 118 C-347.72448731 116.56247374 -341.29082047 116.23634331 -334.88989258 115.69775391 C-332.65566823 115.50791632 -330.42264291 115.30705358 -328.18945312 115.10546875 C-299.565416 112.61468288 -270.79000527 112.81184899 -242.08325195 112.81469727 C-237.92598074 112.81477811 -233.76882071 112.80788376 -229.61157227 112.79418945 C-207.64450849 112.723227 -185.71067872 112.86385275 -163.76171875 113.82421875 C-162.90514994 113.85889566 -162.04858112 113.89357258 -161.16605568 113.92930031 C-149.07692396 114.43439358 -137.2555009 115.79443838 -125.30178261 117.65184975 C-121.85316057 118.17346227 -118.3969672 118.61872439 -114.9375 119.0625 C-97.18188623 121.40905689 -97.18188623 121.40905689 -94 123 C-92.60798558 123.21688814 -91.20924693 123.39159086 -89.80859375 123.54296875 C-72.25462793 125.61651958 -57.49970364 130.57708413 -42 139 C-40.85917969 139.6084375 -39.71835937 140.216875 -38.54296875 140.84375 C-34.63170114 143.09775579 -31.31864651 145.90198746 -27.9375 148.875 C-27.35162109 149.37902344 -26.76574219 149.88304687 -26.16210938 150.40234375 C-15.37628902 159.76362179 -15.37628902 159.76362179 -14.125 163.875 C-14.063125 164.926875 -14.063125 164.926875 -14 166 C-13.01 166.33 -12.02 166.66 -11 167 C-11 167.66 -11 168.32 -11 169 C-10.34 169 -9.68 169 -9 169 C-8.66226563 169.81984375 -8.32453125 170.6396875 -7.9765625 171.484375 C-7.30753906 173.10085938 -7.30753906 173.10085938 -6.625 174.75 C-6.18414063 175.81734375 -5.74328125 176.8846875 -5.2890625 177.984375 C-4.10150092 180.89323412 -4.10150092 180.89323412 -2.8359375 183.140625 C-2 185 -2 185 -2 189 C-1.34 189 -0.68 189 0 189 C5.96311842 217.22965635 7.64593896 249.4401744 -2 277 C-2.66 277 -3.32 277 -4 277 C-4.10441406 277.71542969 -4.20882812 278.43085937 -4.31640625 279.16796875 C-5.07522267 282.31163677 -6.26493706 284.55215773 -7.9375 287.3125 C-8.46214844 288.19550781 -8.98679687 289.07851563 -9.52734375 289.98828125 C-10.25630859 290.98408203 -10.25630859 290.98408203 -11 292 C-11.66 292 -12.32 292 -13 292 C-13 292.66 -13 293.32 -13 294 C-13.66 294 -14.32 294 -15 294 C-15.22945312 294.58394531 -15.45890625 295.16789062 -15.6953125 295.76953125 C-17.34059754 298.58227903 -19.19337928 299.85333508 -21.875 301.6875 C-23.17050781 302.59048828 -23.17050781 302.59048828 -24.4921875 303.51171875 C-27 305 -27 305 -29.2578125 305.51953125 C-30.12019531 305.75736328 -30.12019531 305.75736328 -31 306 C-31.33 306.99 -31.66 307.98 -32 309 C-34.67080935 309.85773501 -37.20767478 310.53515013 -39.9375 311.125 C-45.10334998 312.16330415 -45.10334998 312.16330415 -50 314 C-52.59143905 314.31045526 -55.18371732 314.50973912 -57.78515625 314.71875 C-59.97070668 314.7665741 -59.97070668 314.7665741 -61 316 C-62.64778739 316.18217467 -64.30288043 316.29871616 -65.95825195 316.38891602 C-67.02435699 316.44888763 -68.09046204 316.50885925 -69.18887329 316.57064819 C-70.36017792 316.63112335 -71.53148254 316.69159851 -72.73828125 316.75390625 C-73.95067474 316.81921539 -75.16306824 316.88452454 -76.41220093 316.95181274 C-79.69930107 317.12601312 -82.9865663 317.29497216 -86.27413559 317.45995712 C-88.30356379 317.56205045 -90.33289171 317.66598009 -92.36221313 317.77017212 C-113.58375909 318.8524961 -134.7514738 319.42711706 -156 319 C-156 319.66 -156 320.32 -156 321 C-167.4582294 321.09271138 -178.9164481 321.15324946 -190.375 321.1875 C-191.228022 321.19006805 -192.08104401 321.19263611 -192.95991516 321.19528198 C-225.40271197 321.28147076 -257.62706101 320.18102698 -290 318 C-290 317.34 -290 316.68 -290 316 C-291.21558594 316.01160156 -292.43117188 316.02320313 -293.68359375 316.03515625 C-295.26822764 316.04453278 -296.85286318 316.05363313 -298.4375 316.0625 C-299.23994141 316.07087891 -300.04238281 316.07925781 -300.86914062 316.08789062 C-302.91295221 316.0965143 -304.95683902 316.0522815 -307 316 C-307.33 315.67 -307.66 315.34 -308 315 C-309.64158622 314.81230502 -311.28910638 314.67578371 -312.9375 314.5625 C-317.46353513 314.19065629 -321.75662505 313.49695351 -326.1875 312.53125 C-330.914109 311.63844608 -335.70392554 311.17520468 -340.484375 310.66015625 C-344.14839284 309.97213512 -346.71999414 308.72841279 -350 307 C-352.78824121 306.17498616 -355.58428804 305.50957928 -358.4140625 304.84375 C-361.1384476 303.95482677 -362.77347043 302.76619223 -365 301 C-365.99 300.67 -366.98 300.34 -368 300 C-368 299.34 -368 298.68 -368 298 C-368.928125 297.71125 -369.85625 297.4225 -370.8125 297.125 C-374 296 -374 296 -377 294 C-377 293.34 -377 292.68 -377 292 C-377.9590625 291.5978125 -377.9590625 291.5978125 -378.9375 291.1875 C-381 290 -381 290 -382 287 C-382.89525391 286.55720703 -382.89525391 286.55720703 -383.80859375 286.10546875 C-390.35793667 282.80161127 -394.53352108 274.57727712 -397 268 C-397.84644867 266.39174752 -398.70131516 264.78790997 -399.5625 263.1875 C-401.7482419 258.90083604 -402.76326835 254.9760409 -403.53125 250.25 C-403.95220918 247.7497395 -403.95220918 247.7497395 -405.625 244.75 C-407.19901191 241.60197619 -407.24807495 239.47304926 -407 236 C-407.66 236 -408.32 236 -409 236 C-409.03738281 235.31292969 -409.07476563 234.62585938 -409.11328125 233.91796875 C-409.17902344 233.01691406 -409.24476563 232.11585938 -409.3125 231.1875 C-409.39951172 229.84751953 -409.39951172 229.84751953 -409.48828125 228.48046875 C-410.08059115 225.60934826 -410.71643506 224.77610606 -413 223 C-414.20361088 222.22937976 -415.43374072 221.49851923 -416.6875 220.8125 C-417.780625 220.214375 -418.87375 219.61625 -420 219 C-420 218.34 -420 217.68 -420 217 C-420.71929688 216.90460938 -421.43859375 216.80921875 -422.1796875 216.7109375 C-425.43188215 215.8911322 -427.39412734 214.55699051 -430.125 212.625 C-435.53381175 209.04120228 -440.67588084 207.28439557 -447 206 C-447 205.34 -447 204.68 -447 204 C-448.155 203.87625 -449.31 203.7525 -450.5 203.625 C-457.67624171 202.83019955 -464.83703471 201.90525819 -472 201 C-472.30679687 201.94101562 -472.61359375 202.88203125 -472.9296875 203.8515625 C-473.79387001 206.39364681 -474.73203535 208.64520851 -476 211 C-476.66 211 -477.32 211 -478 211 C-478.66 213.97 -479.32 216.94 -480 220 C-480.66 220 -481.32 220 -482 220 C-482 221.32 -482 222.64 -482 224 C-482.66 224 -483.32 224 -484 224 C-484.12503906 224.51433594 -484.25007813 225.02867187 -484.37890625 225.55859375 C-485.18809647 228.73937293 -486.05649143 231.90084284 -486.9375 235.0625 C-487.27652344 236.29097656 -487.61554688 237.51945313 -487.96484375 238.78515625 C-489 242 -489 242 -491 245 C-491.66 245 -492.32 245 -493 245 C-493.13277344 245.54140625 -493.26554687 246.0828125 -493.40234375 246.640625 C-494.08948005 249.3532415 -494.82350459 252.05106023 -495.5625 254.75 C-495.83191406 255.73484375 -496.10132813 256.7196875 -496.37890625 257.734375 C-496.58386719 258.48203125 -496.78882813 259.2296875 -497 260 C-497.66 260 -498.32 260 -499 260 C-499.103125 260.556875 -499.20625 261.11375 -499.3125 261.6875 C-500 264 -500 264 -501.4375 266.25 C-502.84087847 268.71994611 -503.3668237 270.28928757 -503.9375 273 C-504.79648306 276.84737792 -506.40762174 279.00256263 -509 282 C-509.68132451 283.66072849 -510.34742127 285.327767 -511 287 C-512.33333333 289 -513.66666667 291 -515 293 C-515.71573527 294.64619113 -516.4025696 296.30728055 -517 298 C-517.66 298 -518.32 298 -519 298 C-519.08507812 298.7425 -519.17015625 299.485 -519.2578125 300.25 C-520.15041075 303.5573114 -521.36183798 304.71698103 -523.875 307 C-526.88354445 309.85944844 -528.96341627 312.36956813 -531 316 C-532.16474991 317.62076049 -533.35470546 319.22355718 -534.5625 320.8125 C-535.16191406 321.60269531 -535.76132812 322.39289063 -536.37890625 323.20703125 C-536.91386719 323.79871094 -537.44882812 324.39039063 -538 325 C-538.66 325 -539.32 325 -540 325 C-540 325.66 -540 326.32 -540 327 C-541.61838719 328.71358643 -543.29671681 330.3707726 -545 332 C-546.0625509 333.10411768 -547.12505115 334.20828412 -548.1875 335.3125 C-551 338 -551 338 -553 338 C-553 338.66 -553 339.32 -553 340 C-554.390625 341.1484375 -554.390625 341.1484375 -556.25 342.375 C-559.15569625 344.36464342 -561.54572113 346.46391183 -564 349 C-564.886875 349.66 -565.77375 350.32 -566.6875 351 C-569.07683501 353.0664519 -569.67080236 353.92748873 -570 357 C-569.46375 357.268125 -568.9275 357.53625 -568.375 357.8125 C-567.59125 358.204375 -566.8075 358.59625 -566 359 C-564.4840625 359.7115625 -564.4840625 359.7115625 -562.9375 360.4375 C-560.29029282 361.84558893 -559.05599577 362.94400423 -557 365 C-555.32219986 365.95784859 -553.64353798 366.91424015 -551.95922852 367.8605957 C-548.76840727 369.71624215 -545.73870914 371.80051225 -542.6875 373.875 C-536.89707207 377.7772916 -531.01271232 381.44856618 -525 385 C-518.08303249 389.10108303 -518.08303249 389.10108303 -517 393 C-516.51917063 397.96857019 -516.49756766 400.06212629 -518.875 404.5 C-519.57625 405.325 -520.2775 406.15 -521 407 C-521.66 407 -522.32 407 -523 407 C-523 407.66 -523 408.32 -523 409 C-531.44333791 409.42691034 -537.75903687 409.63421641 -545 405 C-545 404.34 -545 403.68 -545 403 C-547.64 402.34 -550.28 401.68 -553 401 C-553 400.34 -553 399.68 -553 399 C-553.57234375 398.71382812 -554.1446875 398.42765625 -554.734375 398.1328125 C-559.8671875 395.56640625 -559.8671875 395.56640625 -565 393 C-565 392.34 -565 391.68 -565 391 C-567.15431209 389.92034475 -569.31122392 388.84660053 -571.47265625 387.78125 C-572.32730469 387.3584375 -573.18195313 386.935625 -574.0625 386.5 C-574.91972656 386.0771875 -575.77695312 385.654375 -576.66015625 385.21875 C-579 384 -579 384 -582 382 C-582 381.34 -582 380.68 -582 380 C-582.66 379.95875 -583.32 379.9175 -584 379.875 C-588.32665788 378.61305812 -591.71836789 376.06991391 -595 373 C-595 372.34 -595 371.68 -595 371 C-595.721875 370.95875 -596.44375 370.9175 -597.1875 370.875 C-601.14196163 369.64472305 -602.53398317 367.24475899 -605 364 C-605.54011719 363.54753906 -606.08023437 363.09507812 -606.63671875 362.62890625 C-608.55275392 360.33954618 -608.30187812 358.74820496 -608.1875 355.8125 C-608.16042969 354.91144531 -608.13335938 354.01039063 -608.10546875 353.08203125 C-608.05326172 352.05142578 -608.05326172 352.05142578 -608 351 C-607.34 351 -606.68 351 -606 351 C-605.938125 350.46375 -605.87625 349.9275 -605.8125 349.375 C-603.70096077 343.20280841 -598.94544588 340.16520036 -593.68359375 336.85546875 C-589.6525391 334.06834945 -586.0135763 330.84658676 -582.34179688 327.60668945 C-578.20417978 324 -578.20417978 324 -576 324 C-576 323.34 -576 322.68 -576 322 C-574.6015625 320.66015625 -574.6015625 320.66015625 -572.625 319.0625 C-561.37771243 309.48147725 -550.54225572 297.31464104 -544 284 C-543.34 284 -542.68 284 -542 284 C-542 283.01 -542 282.02 -542 281 C-541.34 281 -540.68 281 -540 281 C-539.80664062 280.39671875 -539.61328125 279.7934375 -539.4140625 279.171875 C-539.02347656 277.97304688 -539.02347656 277.97304688 -538.625 276.75 C-538.36976563 275.96109375 -538.11453125 275.1721875 -537.8515625 274.359375 C-537.04826333 272.13372042 -536.10288338 270.09068328 -535 268 C-534.34 268 -533.68 268 -533 268 C-532.896875 266.96875 -532.79375 265.9375 -532.6875 264.875 C-532.00872203 261.04916055 -530.88841205 258.36629975 -529 255 C-528.34 255 -527.68 255 -527 255 C-527 253.68 -527 252.36 -527 251 C-526.34 251 -525.68 251 -525 251 C-524.34 247.37 -523.68 243.74 -523 240 C-522.34 240 -521.68 240 -521 240 C-521 239.01 -521 238.02 -521 237 C-520.34 237 -519.68 237 -519 237 C-518.87496094 236.484375 -518.74992187 235.96875 -518.62109375 235.4375 C-517.81592912 232.27760864 -516.94382401 229.13950894 -516.0625 226 C-515.72347656 224.783125 -515.38445312 223.56625 -515.03515625 222.3125 C-514.20903766 219.6689205 -513.34169008 217.40661898 -512 215 C-511.34 215 -510.68 215 -510 215 C-510 214.01 -510 213.02 -510 212 C-509.34 212 -508.68 212 -508 212 C-508 210.02 -508 208.04 -508 206 C-513.99519835 207.01252239 -518.09608672 208.41177077 -523 212 C-523.66 212 -524.32 212 -525 212 C-525 212.66 -525 213.32 -525 214 C-525.60328125 214.25394531 -526.2065625 214.50789062 -526.828125 214.76953125 C-530.94273754 216.54146923 -534.42665895 218.28918955 -538 221 C-539.98014432 221.72351427 -541.97821315 222.40265389 -544 223 C-544.12632812 224.13566406 -544.25265625 225.27132812 -544.3828125 226.44140625 C-544.9550823 231.00450491 -545.86165973 235.45415011 -546.875 239.9375 C-547.05426025 240.73091797 -547.23352051 241.52433594 -547.41821289 242.34179688 C-549.54907772 251.59235789 -552.54392627 259.6035406 -557 268 C-557.40347656 268.78761719 -557.80695313 269.57523438 -558.22265625 270.38671875 C-560.56304086 274.81915134 -563.10563217 278.61226421 -566.48046875 282.3203125 C-568.01470651 283.97611708 -568.01470651 283.97611708 -569.36328125 285.7421875 C-573.48735547 290.96988721 -578.49719316 294.3314621 -584 298 C-584.70769531 298.53753906 -585.41539062 299.07507813 -586.14453125 299.62890625 C-589.30868345 301.96704819 -592.07312845 303 -596 303 C-596 303.66 -596 304.32 -596 305 C-601.35283575 307.51898153 -606.44741069 308.91340047 -612.25 310 C-613.12696533 310.16878662 -614.00393066 310.33757324 -614.9074707 310.51147461 C-632.17586633 313.78483246 -649.53372091 316.06823082 -667 318 C-668.18851563 318.13535156 -669.37703125 318.27070312 -670.6015625 318.41015625 C-675.84102174 318.91150612 -681.07088359 319.04102323 -686.33203125 319.0546875 C-687.47671875 319.05766846 -688.62140625 319.06064941 -689.80078125 319.0637207 C-694.86734321 319.06195952 -699.93359115 319.03849405 -705 319 C-705 319.66 -705 320.32 -705 321 C-773.6344291 321.39300643 -773.6344291 321.39300643 -797.6875 320.0625 C-798.47922607 320.01893372 -799.27095215 319.97536743 -800.08666992 319.93048096 C-806.46569343 319.56824331 -812.83394815 319.15064819 -819.1875 318.46484375 C-825.2146114 317.82226357 -831.25704935 317.68401482 -837.3125 317.5 C-861.36262611 316.7616789 -861.36262611 316.7616789 -868 315 C-870.16414313 314.80325972 -872.33139984 314.6392679 -874.5 314.5 C-878.12089932 314.26746518 -881.51175775 314.0259536 -885 313 C-885 312.34 -885 311.68 -885 311 C-886.19625 310.87625 -887.3925 310.7525 -888.625 310.625 C-892.27596813 310.17674946 -895.54524899 309.29553163 -899 308 C-899 307.34 -899 306.68 -899 306 C-900.299375 305.62875 -900.299375 305.62875 -901.625 305.25 C-911.10208944 301.73996687 -920.09226063 292.84880281 -925 284 C-925 282.68 -925 281.36 -925 280 C-925.66 280 -926.32 280 -927 280 C-928.002848 276.94476932 -928.97246214 273.87986289 -929.9375 270.8125 C-930.35418945 269.5450293 -930.35418945 269.5450293 -930.77929688 268.25195312 C-934.42930508 256.51036048 -934.16552111 244.38516099 -934.13037109 232.20703125 C-934.12500617 230.00253426 -934.13035588 227.79824091 -934.13671875 225.59375 C-934.15374197 201.48297253 -934.15374197 201.48297253 -930.4375 191.6875 C-930.20353516 191.03072266 -929.96957031 190.37394531 -929.72851562 189.69726562 C-929.16664515 188.12632165 -928.58557805 186.56226174 -928 185 C-927.34 185 -926.68 185 -926 185 C-925.896875 184.154375 -925.79375 183.30875 -925.6875 182.4375 C-924.11773621 174.58868104 -920.10405266 168.11256427 -915 162 C-914.34 162 -913.68 162 -913 162 C-912.89945313 161.41347656 -912.79890625 160.82695313 -912.6953125 160.22265625 C-910.5212429 153.27296186 -902.13128014 148.42554176 -896.5 144.25 C-895.88366699 143.79036865 -895.26733398 143.3307373 -894.63232422 142.85717773 C-883.79099181 135 -883.79099181 135 -878 135 C-878 134.34 -878 133.68 -878 133 C-872.75117306 129.82307843 -867.98511371 129.34302035 -862 129 C-862 128.34 -862 127.68 -862 127 C-860.02 127 -858.04 127 -856 127 C-856 126.34 -856 125.68 -856 125 C-854.72125 124.87625 -853.4425 124.7525 -852.125 124.625 C-848.84450509 124.26389126 -845.66281604 123.75794166 -842.4375 123.0625 C-836.67986142 121.84799811 -830.86905673 121.21611824 -825.02734375 120.5625 C-822.19064789 120.21069956 -819.46368056 119.67012004 -816.68359375 119.0078125 C-811.53191439 117.82053076 -806.38725364 117.31139294 -801.125 116.875 C-800.1342749 116.79008301 -799.1435498 116.70516602 -798.12280273 116.61767578 C-788.73883379 115.87259509 -779.40622252 115.8024364 -770 116 C-770 115.34 -770 114.68 -770 114 C-750.46121436 112.73952581 -730.91215481 112.84590717 -711.34277344 112.86962891 C-706.58745547 112.87531745 -701.83219362 112.87195494 -697.07687759 112.86617661 C-677.69434567 112.84632456 -658.35776247 112.89391413 -639 114 C-639 114.66 -639 115.32 -639 116 C-637.26943359 115.94779297 -637.26943359 115.94779297 -635.50390625 115.89453125 C-621.47583913 115.6145532 -607.88207345 117.06679273 -594 119 C-594 119.66 -594 120.32 -594 121 C-593.01 120.95875 -592.02 120.9175 -591 120.875 C-586.76164134 120.8576652 -583.06806015 121.85808838 -579 123 C-579 123.66 -579 124.32 -579 125 C-578.278125 124.94328125 -577.55625 124.8865625 -576.8125 124.828125 C-568.56886657 125.3319026 -560.49495588 133.32778748 -555 139 C-554.360625 139.5775 -553.72125 140.155 -553.0625 140.75 C-549.60546885 144.52130671 -546 148.75587632 -546 154 C-545.34 154 -544.68 154 -544 154 C-539.52169072 164.90370954 -538.25230693 177.42043635 -541 189 C-539.98679687 188.566875 -539.98679687 188.566875 -538.953125 188.125 C-538.06109375 187.75375 -537.1690625 187.3825 -536.25 187 C-535.36828125 186.62875 -534.4865625 186.2575 -533.578125 185.875 C-531 185 -531 185 -527 185 C-527 184.34 -527 183.68 -527 183 C-524.58490559 182.32713788 -522.16819644 181.66153988 -519.75 181 C-519.06808594 180.80921875 -518.38617187 180.6184375 -517.68359375 180.421875 C-514.29399088 179.50042956 -511.54221024 179 -508 179 C-508 178.34 -508 177.68 -508 177 C-502.97350697 175.42922093 -498.23880078 174.55145271 -493 174 C-492.66226562 173.10796875 -492.32453125 172.2159375 -491.9765625 171.296875 C-491.53054688 170.12640625 -491.08453125 168.9559375 -490.625 167.75 C-489.96371094 166.00976562 -489.96371094 166.00976562 -489.2890625 164.234375 C-488.29409145 161.73790219 -487.25589954 159.37095053 -486 157 C-485.34 157 -484.68 157 -484 157 C-483.855625 156.113125 -483.71125 155.22625 -483.5625 154.3125 C-483.08980022 151.52882354 -482.56929815 148.76516243 -482 146 C-481.34 146 -480.68 146 -480 146 C-479.731875 145.0925 -479.46375 144.185 -479.1875 143.25 C-478 140 -478 140 -476.5 138.15625 C-474.6650801 135.51855264 -474.30159747 133.41032213 -473.8125 130.25 C-473.65394531 129.26515625 -473.49539063 128.2803125 -473.33203125 127.265625 C-473.16767578 126.14414062 -473.16767578 126.14414062 -473 125 C-472.34 125 -471.68 125 -471 125 C-470.88011719 124.46632813 -470.76023437 123.93265625 -470.63671875 123.3828125 C-468.40128657 115.01708471 -464.91531429 107.28613197 -460.234375 100.0234375 C-458.85044513 97.92483237 -458.85044513 97.92483237 -458 95 C-457.34 95 -456.68 95 -456 95 C-455.814375 94.319375 -455.62875 93.63875 -455.4375 92.9375 C-453.40623362 88.78665132 -450.3237382 86.14842014 -447 83 C-446.2575 82.195625 -445.515 81.39125 -444.75 80.5625 C-433.30753564 69.90020367 -433.30753564 69.90020367 -426 69 C-426 68.34 -426 67.68 -426 67 C-419.41658619 64.11450374 -413.09883934 62.14789743 -406 61 C-406 60.34 -406 59.68 -406 59 C-404.69011108 58.82609741 -404.69011108 58.82609741 -403.35375977 58.64868164 C-400.123641 58.21781252 -396.89405848 57.7831761 -393.66479492 57.34594727 C-392.26525963 57.15725136 -390.86551897 56.97007231 -389.46557617 56.78442383 C-387.45698954 56.51779728 -385.44918262 56.24531724 -383.44140625 55.97265625 C-382.23170166 55.81031494 -381.02199707 55.64797363 -379.77563477 55.48071289 C-377.09973637 55.29175873 -377.09973637 55.29175873 -376 54 C-374.50625843 53.73663126 -373.00214362 53.5316757 -371.49609375 53.3515625 C-370.53840088 53.23474121 -369.58070801 53.11791992 -368.59399414 52.99755859 C-367.55235107 52.87461426 -366.51070801 52.75166992 -365.4375 52.625 C-364.37587646 52.49561035 -363.31425293 52.3662207 -362.22045898 52.23291016 C-357.65717635 51.67687851 -353.09269828 51.13093937 -348.52832031 50.58398438 C-345.20595337 50.18442927 -341.88422533 49.77984867 -338.5625 49.375 C-337.52085693 49.25205566 -336.47921387 49.12911133 -335.40600586 49.00244141 C-334.44831299 48.88562012 -333.49062012 48.76879883 -332.50390625 48.6484375 C-331.65642822 48.54708496 -330.8089502 48.44573242 -329.93579102 48.34130859 C-327.99953213 48.1907275 -327.99953213 48.1907275 -327 47 C-324.66666667 46.66666667 -322.33333333 46.33333333 -320 46 C-319.67 45.67 -319.34 45.34 -319 45 C-316.79591408 44.65255323 -314.5826515 44.36304889 -312.3671875 44.09765625 C-310.98957749 43.92778173 -309.61197352 43.75785823 -308.234375 43.58789062 C-306.06237596 43.32518822 -303.89017172 43.06431147 -301.71777344 42.80493164 C-299.62114004 42.55305711 -297.5254261 42.29435575 -295.4296875 42.03515625 C-294.17397949 41.8844165 -292.91827148 41.73367676 -291.62451172 41.57836914 C-288.00511871 41.07802601 -288.00511871 41.07802601 -284.60327148 40.01147461 C-280.38215593 38.82656494 -276.26407903 38.28059667 -271.91796875 37.78125 C-271.06374832 37.67784302 -270.20952789 37.57443604 -269.329422 37.46789551 C-266.61605792 37.13990899 -263.90190076 36.81928444 -261.1875 36.5 C-244.54809535 35.98989838 -244.54809535 35.98989838 -230 31 C-222.54288242 29.36875553 -214.90177474 28.57614267 -207.31640625 27.78540039 C-203.55996275 27.37554942 -199.89580722 26.80529692 -196.1953125 26.03515625 C-189.68034456 24.68407987 -183.1043003 23.89627191 -176.5078125 23.05664062 C-175.56679688 22.93353516 -174.62578125 22.81042969 -173.65625 22.68359375 C-172.38491211 22.52201782 -172.38491211 22.52201782 -171.08789062 22.35717773 C-168.94842427 22.0950414 -168.94842427 22.0950414 -167 21 C-164.62070951 20.56424272 -162.2501431 20.1699398 -159.859375 19.80859375 C-158.7814267 19.64424583 -158.7814267 19.64424583 -157.68170166 19.47657776 C-156.15202802 19.24520558 -154.62204859 19.0158476 -153.09179688 18.78833008 C-150.79915795 18.44486447 -148.50908101 18.08700006 -146.21875 17.72851562 C-137.05426659 16.3372781 -128.28997344 15.67353017 -119 16 C-119 15.34 -119 14.68 -119 14 C-115.7 14 -112.4 14 -109 14 C-109 13.34 -109 12.68 -109 12 C-100.14016481 10.55546165 -91.29183091 9.11320937 -82.375 8.0625 C-75.44336432 7.23515331 -68.57457262 6.13731474 -61.6875 5 C-53.00154118 3.56571806 -44.34252808 2.37905919 -35.57299805 1.59570312 C-31.98309486 1.57296044 -31.98309486 1.57296044 -29 0 C-26.32941149 -0.14115161 -23.67567762 -0.04247107 -21 0 C-21 -0.66 -21 -1.32 -21 -2 C-13.16384952 -3.5672301 -7.0132159 -3.9274009 0 0 Z " fill="#F8F8F8" transform="translate(1005,357)"/>
<path d="M0 0 C4.53226737 0.00008101 9.06443311 -0.00684291 13.59667969 -0.02050781 C37.39948459 -0.09087619 61.17218027 0.03933244 84.95800781 1.00952148 C85.87911221 1.0441984 86.8002166 1.07887531 87.74923325 1.11460304 C98.49599414 1.53239571 109.03036013 2.42968573 119.65695381 4.12314129 C126.24050013 5.16408979 132.77349462 5.65184365 139.43176079 5.8935976 C144.77301897 6.09671456 144.77301897 6.09671456 146.95019531 7.18530273 C150.45610951 7.62539112 153.96149795 8.00063275 157.47753906 8.34741211 C161.89555001 8.82159653 165.75695505 9.63050578 169.95019531 11.18530273 C172.55547171 11.97215644 175.16622054 12.73786769 177.77832031 13.50170898 C179.95019531 14.18530273 179.95019531 14.18530273 181.95019531 15.18530273 C181.95019531 15.84530273 181.95019531 16.50530273 181.95019531 17.18530273 C185.25019531 18.17530273 188.55019531 19.16530273 191.95019531 20.18530273 C191.95019531 20.84530273 191.95019531 21.50530273 191.95019531 22.18530273 C192.81837891 22.59135742 192.81837891 22.59135742 193.70410156 23.00561523 C196.72590238 24.59271758 199.29451073 26.60358362 201.99316406 28.68139648 C203.53430664 29.86570764 205.11130861 31.00335983 206.70019531 32.12280273 C209.59570796 34.77702266 211.24310687 37.70670741 212.95019531 41.18530273 C213.36398437 42.02577148 213.77777344 42.86624023 214.20410156 43.73217773 C221.48025736 59.10984431 223.29901529 74.45218569 223.15600586 91.2734375 C223.13756977 93.51305419 223.1354984 95.75225801 223.13574219 97.99194336 C223.11772496 105.11524812 222.94824538 112.11910824 221.95019531 119.18530273 C221.29019531 119.18530273 220.63019531 119.18530273 219.95019531 119.18530273 C219.82644531 120.01030273 219.70269531 120.83530273 219.57519531 121.68530273 C217.07428762 135.69038584 217.07428762 135.69038584 210.57519531 140.37280273 C209.59808594 141.08823242 208.62097656 141.80366211 207.61425781 142.54077148 C204.95019531 144.18530273 204.95019531 144.18530273 201.95019531 144.18530273 C201.95019531 144.84530273 201.95019531 145.50530273 201.95019531 146.18530273 C186.92307863 151.98524251 170.03297618 151.89852346 154.12597656 152.79077148 C152.96995752 152.85619833 151.81393848 152.92162518 150.62288857 152.98903465 C121.91061644 154.56922029 93.21636126 154.6104072 64.47233021 154.51446807 C59.51090171 154.49893228 54.54958327 154.49635521 49.58813477 154.50097656 C-21.83322967 154.56507523 -21.83322967 154.56507523 -49.66902161 150.63276672 C-52.75403613 150.22444922 -55.82259469 149.9225595 -58.92480469 149.68530273 C-62.93382469 149.34925253 -66.69207571 148.6685193 -70.59667969 147.72045898 C-73.60669591 147.06381532 -76.62609079 146.62729664 -79.67480469 146.18530273 C-84.29095361 145.50343314 -88.61622592 144.6287935 -93.04980469 143.18530273 C-93.04980469 142.52530273 -93.04980469 141.86530273 -93.04980469 141.18530273 C-94.08105469 141.12342773 -95.11230469 141.06155273 -96.17480469 140.99780273 C-100.97291814 139.99174669 -102.62930477 138.60580265 -106.04980469 135.18530273 C-106.04980469 134.52530273 -106.04980469 133.86530273 -106.04980469 133.18530273 C-107.36980469 133.18530273 -108.68980469 133.18530273 -110.04980469 133.18530273 C-114.58938683 128.3705944 -119.04980469 121.98651478 -119.04980469 115.18530273 C-119.70980469 115.18530273 -120.36980469 115.18530273 -121.04980469 115.18530273 C-123.20300143 109.74725756 -124.81014242 104.45648319 -126.04980469 98.74780273 C-127.08850119 94.12342788 -128.14062254 89.59351274 -129.73730469 85.12280273 C-132.27251234 77.93052885 -132.18878767 70.72126872 -132.04980469 63.18530273 C-132.70980469 63.18530273 -133.36980469 63.18530273 -134.04980469 63.18530273 C-134.09938327 58.57716425 -134.13560854 53.96918236 -134.15966797 49.36083984 C-134.16970195 47.79440607 -134.18333223 46.22799091 -134.20068359 44.66162109 C-134.22504694 42.4051452 -134.23631385 40.14891779 -134.24511719 37.89233398 C-134.26060104 36.84829155 -134.26060104 36.84829155 -134.27639771 35.78315735 C-134.27730908 31.79945782 -133.80538739 28.77240165 -132.04980469 25.18530273 C-131.38980469 25.18530273 -130.72980469 25.18530273 -130.04980469 25.18530273 C-129.96730469 24.48405273 -129.88480469 23.78280273 -129.79980469 23.06030273 C-128.2758139 17.21833806 -124.81856177 13.45365167 -119.93261719 10.15405273 C-116.97347276 8.6315054 -114.35394976 8.38759733 -111.04980469 8.18530273 C-111.04980469 7.52530273 -111.04980469 6.86530273 -111.04980469 6.18530273 C-109.91542969 6.04092773 -108.78105469 5.89655273 -107.61230469 5.74780273 C-104.24203268 5.57358796 -104.24203268 5.57358796 -103.04980469 4.18530273 C-95.74464543 2.89615698 -88.44722461 3.09179602 -81.04980469 3.18530273 C-81.04980469 2.52530273 -81.04980469 1.86530273 -81.04980469 1.18530273 C-54.03311286 0.21827309 -27.03255202 -0.00264674 0 0 Z " fill="#0D0D0E" transform="translate(755.0498046875,496.814697265625)"/>
<path d="M0 0 C3.2090265 0.00480503 6.41803774 0.00584027 9.62706757 0.00624466 C83.84541749 0.03991665 83.84541749 0.03991665 111.79680634 4.3172493 C111.79680634 4.9772493 111.79680634 5.6372493 111.79680634 6.3172493 C112.68432587 6.28244461 112.68432587 6.28244461 113.58977509 6.2469368 C119.71867023 6.10696203 123.62343062 6.30687676 128.29680634 10.6297493 C129.53430634 11.9600618 129.53430634 11.9600618 130.79680634 13.3172493 C131.66305634 14.1834993 132.52930634 15.0497493 133.42180634 15.9422493 C134.20555634 16.7259993 134.98930634 17.5097493 135.79680634 18.3172493 C136.39493134 18.8534993 136.99305634 19.3897493 137.60930634 19.9422493 C138.79680634 21.3172493 138.79680634 21.3172493 138.79680634 24.3172493 C139.45680634 24.3172493 140.11680634 24.3172493 140.79680634 24.3172493 C141.78507355 30.89001062 141.95066429 37.30131328 141.92180634 43.9422493 C141.91987274 45.02369217 141.91793915 46.10513504 141.91594696 47.21934891 C141.85975183 57.93466844 141.39168929 68.61997896 140.79680634 79.3172493 C140.13680634 79.3172493 139.47680634 79.3172493 138.79680634 79.3172493 C138.67563446 80.10228836 138.55446259 80.88732742 138.42961884 81.69615555 C137.7094616 86.21098748 137.00142799 90.60709178 135.73430634 95.0047493 C134.76459955 98.4310466 134.41440461 101.6310694 134.08196259 105.1609993 C133.70267056 108.02907047 132.83253747 110.62434834 131.79680634 113.3172493 C131.13680634 113.3172493 130.47680634 113.3172493 129.79680634 113.3172493 C129.79680634 114.3072493 129.79680634 115.2972493 129.79680634 116.3172493 C129.13680634 116.3172493 128.47680634 116.3172493 127.79680634 116.3172493 C127.52739227 117.04685867 127.25797821 117.77646805 126.98040009 118.5281868 C125.82706999 121.24593494 124.50848121 123.49995979 122.85930634 125.9422493 C122.3552829 126.69763992 121.85125946 127.45303055 121.33196259 128.2313118 C119.9280241 130.13895341 118.59567007 131.77816697 116.79680634 133.3172493 C116.13680634 133.3172493 115.47680634 133.3172493 114.79680634 133.3172493 C114.79680634 133.9772493 114.79680634 134.6372493 114.79680634 135.3172493 C112.74993134 136.8250618 112.74993134 136.8250618 110.04680634 138.4422493 C109.16508759 138.98107742 108.28336884 139.51990555 107.37493134 140.0750618 C104.79680634 141.3172493 104.79680634 141.3172493 100.79680634 141.3172493 C100.79680634 141.9772493 100.79680634 142.6372493 100.79680634 143.3172493 C98.48680634 143.6472493 96.17680634 143.9772493 93.79680634 144.3172493 C93.79680634 144.9772493 93.79680634 145.6372493 93.79680634 146.3172493 C85.94066747 147.9767483 78.07014905 148.8794971 70.08464813 149.61949539 C66.11475415 149.63947309 66.11475415 149.63947309 62.79680634 151.3172493 C59.43571349 151.64251635 56.07346643 151.8308439 52.70305634 152.0359993 C49.90630502 151.9958482 49.90630502 151.9958482 48.79680634 153.3172493 C47.18996136 153.47450736 45.57649677 153.5647782 43.96320343 153.6277504 C42.93338317 153.66885783 41.90356291 153.70996527 40.84253597 153.75231838 C39.71506482 153.79090623 38.58759367 153.82949408 37.42595673 153.86925125 C36.25618569 153.91129086 35.08641466 153.95333048 33.88119602 153.99664402 C21.16459325 154.421074 8.45293942 154.48129259 -4.26959991 154.48521805 C-6.80548367 154.48845053 -9.34136726 154.49181588 -11.87725067 154.49530411 C-17.16567026 154.50123875 -22.45407818 154.50319419 -27.74250031 154.50255203 C-33.05014968 154.5020236 -38.35771495 154.50932419 -43.66535187 154.52305984 C-70.78939367 154.59217543 -97.87655823 154.50765933 -124.98053741 153.36803055 C-126.01050905 153.32481359 -127.04048069 153.28159664 -128.10166359 153.23707008 C-130.98989941 153.11254476 -133.87771385 152.98141069 -136.76544952 152.84581375 C-137.59555731 152.80781221 -138.42566509 152.76981068 -139.28092766 152.73065758 C-154.42778142 151.97081708 -154.42778142 151.97081708 -160.20319366 149.3172493 C-161.13131866 149.0284993 -162.05944366 148.7397493 -163.01569366 148.4422493 C-170.40446357 145.83444815 -176.26549382 142.58195598 -181.20319366 136.3172493 C-181.20319366 135.6572493 -181.20319366 134.9972493 -181.20319366 134.3172493 C-181.86319366 134.3172493 -182.52319366 134.3172493 -183.20319366 134.3172493 C-183.91555393 132.38370001 -184.62786493 130.45013255 -185.33991241 128.51646805 C-186.24838163 126.10571742 -186.24838163 126.10571742 -187.82819366 123.0672493 C-191.27099517 113.67779066 -190.35940364 102.75770714 -190.32819366 92.8797493 C-190.33206085 91.65965164 -190.33592804 90.43955399 -190.33991241 89.18248367 C-190.32479448 74.96406177 -190.03728124 61.79795148 -183.07038116 49.1063118 C-182.14653774 47.20036456 -181.64905776 45.38278298 -181.20319366 43.3172493 C-180.54319366 43.3172493 -179.88319366 43.3172493 -179.20319366 43.3172493 C-179.07944366 42.2344368 -179.07944366 42.2344368 -178.95319366 41.1297493 C-178.04605535 37.72798062 -176.60308488 35.86258846 -174.20319366 33.3172493 C-173.54319366 33.3172493 -172.88319366 33.3172493 -172.20319366 33.3172493 C-171.94280304 32.72041336 -171.68241241 32.12357742 -171.41413116 31.50865555 C-170.1235487 29.17311761 -168.88093584 27.93548798 -166.82819366 26.2547493 C-166.24295929 25.76877274 -165.65772491 25.28279617 -165.05475616 24.78209305 C-164.44374054 24.29869461 -163.83272491 23.81529617 -163.20319366 23.3172493 C-162.57670929 22.79646805 -161.95022491 22.2756868 -161.30475616 21.7391243 C-158.90190204 20.11340143 -156.74325432 19.40068711 -153.95319366 18.6297493 C-153.06116241 18.37838211 -152.16913116 18.12701492 -151.25006866 17.86803055 C-150.57459991 17.68627274 -149.89913116 17.50451492 -149.20319366 17.3172493 C-149.20319366 16.6572493 -149.20319366 15.9972493 -149.20319366 15.3172493 C-148.39495148 15.05170242 -147.58670929 14.78615555 -146.75397491 14.5125618 C-145.6853421 14.15935867 -144.61670929 13.80615555 -143.51569366 13.4422493 C-141.93208038 12.92017899 -141.93208038 12.92017899 -140.31647491 12.3875618 C-137.30294759 11.4126397 -137.30294759 11.4126397 -134.91803741 10.25084305 C-130.84639915 8.85066816 -126.72611337 8.62310445 -122.45319366 8.2547493 C-120.72888219 8.10111035 -119.00489581 7.94376191 -117.28131866 7.78209305 C-116.52238312 7.71627029 -115.76344757 7.65044754 -114.98151398 7.58263016 C-113.18197075 7.49435825 -113.18197075 7.49435825 -112.20319366 6.3172493 C-109.85005812 6.24453188 -107.49485698 6.23354062 -105.14069366 6.2547493 C-103.20516632 6.26828445 -103.20516632 6.26828445 -101.23053741 6.28209305 C-100.23151398 6.29369461 -99.23249054 6.30529617 -98.20319366 6.3172493 C-98.20319366 5.6572493 -98.20319366 4.9972493 -98.20319366 4.3172493 C-65.52100315 0.54313885 -32.86234354 -0.05534988 0 0 Z " fill="#0D0D0E" transform="translate(292.2031936645508,496.6827507019043)"/>
<path d="M0 0 C0.87227737 0.00141495 1.74455475 0.0028299 2.64326477 0.00428772 C5.3833077 0.00980992 8.12326373 0.02234678 10.86328125 0.03515625 C12.74023318 0.04018134 14.61718641 0.04474246 16.49414062 0.04882812 C21.05472012 0.05975367 25.61523604 0.07696268 30.17578125 0.09765625 C30.17578125 0.42765625 30.17578125 0.75765625 30.17578125 1.09765625 C-2.52608119 3.54467285 -35.24698018 3.34292306 -68.0155232 3.24170947 C-75.5397548 3.21889323 -83.0639911 3.20824298 -90.58824897 3.19830346 C-106.00027905 3.17768745 -121.41223963 3.14277082 -136.82421875 3.09765625 C-136.82421875 2.76765625 -136.82421875 2.43765625 -136.82421875 2.09765625 C-136.23652553 2.09342431 -135.6488323 2.08919237 -135.04333019 2.08483219 C-120.70237371 1.98124757 -106.36146239 1.87257001 -92.02058697 1.75831699 C-85.08527404 1.70318482 -78.14995597 1.64973723 -71.21459961 1.6003418 C-64.51668959 1.55263268 -57.81883277 1.50011477 -51.12098122 1.4447155 C-48.57065858 1.42439733 -46.02032276 1.40566759 -43.46997643 1.38858223 C-39.88708124 1.36430334 -36.30427532 1.33428304 -32.72143555 1.30297852 C-31.67629791 1.29722305 -30.63116028 1.29146759 -29.55435181 1.28553772 C-23.75932104 1.22830546 -18.05744389 0.92362039 -12.29273987 0.32027435 C-8.19629201 -0.04915471 -4.10989025 -0.02592632 0 0 Z " fill="#515153" transform="translate(886.82421875,647.90234375)"/>
<path d="M0 0 C2.05078125 0.03255208 4.1015625 0.06510417 6.15234375 0.09765625 C6.15234375 0.42765625 6.15234375 0.75765625 6.15234375 1.09765625 C-0.86960279 3.16191852 -7.74990687 3.69079845 -15.03515625 4.16015625 C-17.34133433 4.31492472 -19.64733436 4.47237508 -21.953125 4.6328125 C-23.47135864 4.73154663 -23.47135864 4.73154663 -25.02026367 4.83227539 C-27.68958316 5.08281941 -30.23173117 5.51970189 -32.84765625 6.09765625 C-32.84765625 7.08765625 -32.84765625 8.07765625 -32.84765625 9.09765625 C-38.12765625 9.09765625 -43.40765625 9.09765625 -48.84765625 9.09765625 C-48.84765625 8.43765625 -48.84765625 7.77765625 -48.84765625 7.09765625 C-73.10265625 6.60265625 -73.10265625 6.60265625 -97.84765625 6.09765625 C-97.84765625 5.76765625 -97.84765625 5.43765625 -97.84765625 5.09765625 C-97.06608154 5.08307373 -96.28450684 5.06849121 -95.47924805 5.0534668 C-74.36484399 4.62844536 -53.2772792 3.75786475 -32.18606949 2.69882584 C-30.15417118 2.59735737 -28.12218978 2.49772679 -26.09017944 2.39852905 C-22.25510213 2.2108005 -18.42050356 2.01431862 -14.5859375 1.81640625 C-13.41463287 1.75910843 -12.24332825 1.70181061 -11.03652954 1.64277649 C-9.9704245 1.58599228 -8.90431946 1.52920807 -7.8059082 1.47070312 C-6.86858353 1.42264526 -5.93125885 1.3745874 -4.9655304 1.32507324 C-2.5934821 1.07036307 -2.30429436 0.12179146 0 0 Z " fill="#4A4A4B" transform="translate(946.84765625,670.90234375)"/>
<path d="M0 0 C12.48684392 -0.14613992 24.96256378 0.066934 37.44528198 0.37332153 C39.17663686 0.41577719 40.90802155 0.45703568 42.63943481 0.49703979 C45.12562693 0.55521715 47.61163274 0.61864483 50.09765625 0.68359375 C50.83060913 0.70031128 51.56356201 0.71702881 52.31872559 0.73425293 C56.2742544 0.8444069 60.17704464 1.10014827 64.11425781 1.5 C71.09207878 2.16481533 78.06987586 2.22971224 85.07421875 2.31640625 C86.49339829 2.33703236 87.91257248 2.35803006 89.33174133 2.37937927 C93.02887575 2.43401697 96.72606009 2.48367794 100.42327881 2.53222656 C104.21126638 2.58287329 107.99918336 2.63833169 111.78710938 2.69335938 C119.19134611 2.80022539 126.59564241 2.90182263 134 3 C134 3.33 134 3.66 134 4 C122.5417706 4.09271138 111.0835519 4.15324946 99.625 4.1875 C98.771978 4.19006805 97.91895599 4.19263611 97.04008484 4.19528198 C64.59728803 4.28147076 32.37293899 3.18102698 0 1 C0 0.67 0 0.34 0 0 Z " fill="#949494" transform="translate(715,674)"/>
<path d="M0 0 C1.24728882 -0.00517639 2.49457764 -0.01035278 3.77966309 -0.01568604 C7.36494368 -0.02740649 10.94987281 -0.02422193 14.53515625 -0.015625 C15.62568802 -0.01958282 16.71621979 -0.02354065 17.83979797 -0.02761841 C18.84794052 -0.02140472 19.85608307 -0.01519104 20.89477539 -0.00878906 C21.7754921 -0.00719788 22.6562088 -0.00560669 23.56361389 -0.00396729 C26.10468584 0.26788617 27.74496247 0.96970756 29.9375 2.25 C29.12761627 2.26030746 28.31773254 2.27061493 27.48330688 2.28123474 C19.86089284 2.37910365 12.23856196 2.48160281 4.61628151 2.58933926 C0.69734151 2.64456684 -3.22160595 2.69798657 -7.140625 2.74731445 C-10.9207888 2.79496046 -14.70086074 2.84730333 -18.48091507 2.90294075 C-19.92502183 2.92336324 -21.36915377 2.94207651 -22.8133049 2.95907402 C-24.83181251 2.98312006 -26.85023862 3.01373877 -28.86865234 3.04467773 C-30.59406754 3.06799416 -30.59406754 3.06799416 -32.3543396 3.09178162 C-35.0301465 3.06953729 -35.0301465 3.06953729 -37.0625 4.25 C-38.87591842 4.33471364 -40.69244161 4.35721083 -42.5078125 4.34765625 C-44.12236328 4.34282227 -44.12236328 4.34282227 -45.76953125 4.33789062 C-46.89746094 4.32951172 -48.02539062 4.32113281 -49.1875 4.3125 C-50.32316406 4.30798828 -51.45882812 4.30347656 -52.62890625 4.29882812 C-55.44015638 4.28701615 -58.2513023 4.27054507 -61.0625 4.25 C-56.57384161 1.25756107 -52.11980746 1.48851933 -46.8125 1.125 C-45.60279541 1.0415332 -44.39309082 0.95806641 -43.14672852 0.87207031 C-28.78212198 -0.0111122 -14.38619703 0.02812801 0 0 Z " fill="#020203" transform="translate(293.0625,496.75)"/>
<path d="M0 0 C0 0.33 0 0.66 0 1 C-12.63055626 2.40618519 -25.31196243 2.09640239 -38 2 C-38 2.66 -38 3.32 -38 4 C-60.77 4 -83.54 4 -107 4 C-107 3.67 -107 3.34 -107 3 C-106.15341072 2.9845388 -106.15341072 2.9845388 -105.28971863 2.96876526 C-99.36760893 2.85982733 -93.44562501 2.74531109 -87.52368164 2.62768555 C-85.31928156 2.58461384 -83.11485405 2.54292179 -80.91040039 2.50268555 C-77.72533938 2.44430357 -74.54041299 2.38081209 -71.35546875 2.31640625 C-69.89852852 2.29133751 -69.89852852 2.29133751 -68.41215515 2.26576233 C-62.74606634 2.14555592 -57.15467392 1.78350727 -51.5146637 1.23158264 C-48.18597384 0.92503398 -44.86412951 0.78783287 -41.5234375 0.68359375 C-40.54892136 0.65235413 -40.54892136 0.65235413 -39.55471802 0.6204834 C-37.49490468 0.55580721 -35.43498858 0.49630601 -33.375 0.4375 C-32.67221924 0.41632111 -31.96943848 0.39514221 -31.24536133 0.37332153 C-20.82880595 0.05971471 -10.42172104 -0.14125827 0 0 Z " fill="#8F8E8E" transform="translate(338,674)"/>
<path d="M0 0 C0 1.98 0 3.96 0 6 C-0.66 6 -1.32 6 -2 6 C-2 6.99 -2 7.98 -2 9 C-2.66 9 -3.32 9 -4 9 C-4.144375 9.61875 -4.28875 10.2375 -4.4375 10.875 C-5 13 -5 13 -6 15 C-6.66 15 -7.32 15 -8 15 C-7.95875 14.05125 -7.9175 13.1025 -7.875 12.125 C-7.65026182 8.89755144 -7.65026182 8.89755144 -10 7 C-10.50789063 7.3609375 -11.01578125 7.721875 -11.5390625 8.09375 C-15.9555341 11.07114659 -18.54803595 12.37172482 -24 12 C-26.30230766 12.89831016 -26.30230766 12.89831016 -28 14 C-24.50912907 9.9957657 -22.35048061 8.37328935 -17 8 C-17 7.34 -17 6.68 -17 6 C-15.390625 4.74609375 -15.390625 4.74609375 -13.25 3.4375 C-12.55390625 3.00308594 -11.8578125 2.56867187 -11.140625 2.12109375 C-7.39124761 0.15745997 -4.19787622 -0.11660767 0 0 Z " fill="#0A0A0B" transform="translate(497,563)"/>
<path d="M0 0 C6.43311296 -0.09507063 12.65758005 -0.15316726 19 1 C19 1.66 19 2.32 19 3 C19.88751953 2.96519531 19.88751953 2.96519531 20.79296875 2.9296875 C25.33801959 2.82588536 28.85940059 2.86291643 33 5 C30.10471229 6.08573289 27.9223448 5.91023785 24.9375 5.4375 C20.95214345 4.56737675 20.95214345 4.56737675 18 7 C14.96875 7.046875 14.96875 7.046875 11.5 6.75 C10.3553125 6.66234375 9.210625 6.5746875 8.03125 6.484375 C5 6 5 6 2 4 C2 3.01 2 2.02 2 1 C1.34 0.67 0.68 0.34 0 0 Z " fill="#111112" transform="translate(385,500)"/>
<path d="M0 0 C5.94 0 11.88 0 18 0 C18 0.33 18 0.66 18 1 C16.83082031 1.12117188 15.66164063 1.24234375 14.45703125 1.3671875 C12.90881329 1.53608401 11.36063839 1.70537568 9.8125 1.875 C9.04357422 1.95363281 8.27464844 2.03226562 7.48242188 2.11328125 C3.38099101 2.57095165 -0.28979431 3.05484362 -4 5 C-4.33 5.66 -4.66 6.32 -5 7 C-8.96 7 -12.92 7 -17 7 C-16.01 6.34 -15.02 5.68 -14 5 C-16.33294775 4.95758277 -18.66702567 4.95907063 -21 5 C-21.33 5.33 -21.66 5.66 -22 6 C-24.67058851 6.14115161 -27.32432238 6.04247107 -30 6 C-30 5.67 -30 5.34 -30 5 C-28.865625 4.855625 -27.73125 4.71125 -26.5625 4.5625 C-23.19222799 4.38828522 -23.19222799 4.38828522 -22 3 C-14.69484075 1.71085425 -7.39741993 1.90649329 0 2 C0 1.34 0 0.68 0 0 Z " fill="#505052" transform="translate(674,498)"/>
<path d="M0 0 C0.33 0 0.66 0 1 0 C0.85771699 2.83355099 0.71126584 5.66678787 0.5625 8.5 C0.52318359 9.29148437 0.48386719 10.08296875 0.44335938 10.8984375 C0.24555634 14.61104836 -0.03184672 18.23708111 -0.52734375 21.92578125 C-1.18013838 26.84158738 -1.14859484 31.73553398 -1.125 36.6875 C-1.12306641 37.67758057 -1.12113281 38.66766113 -1.11914062 39.68774414 C-1.06134422 49.80773411 -0.58378214 59.89848397 0 70 C-5.23660081 62.14509879 -3.15735309 48.55525587 -3.13037109 39.20703125 C-3.12500617 37.00253426 -3.13035588 34.79824091 -3.13671875 32.59375 C-3.14939766 9.02827328 -3.14939766 9.02827328 0 0 Z " fill="#89898B" transform="translate(74,550)"/>
<path d="M0 0 C-8.27657818 2.23691302 -16.50692562 3.8356269 -25 5 C-25 5.99 -25 6.98 -25 8 C-24.34 8.33 -23.68 8.66 -23 9 C-27.95 9 -32.9 9 -38 9 C-36 4 -36 4 -35 3 C-30.65276219 2.25450791 -26.27411802 1.72191071 -21.8996582 1.16064453 C-19.70596859 0.87738475 -17.5141952 0.58168966 -15.32226562 0.28515625 C-13.92718286 0.10340106 -12.53200324 -0.07761249 -11.13671875 -0.2578125 C-9.22959106 -0.50748779 -9.22959106 -0.50748779 -7.28393555 -0.76220703 C-4.4576046 -0.96686441 -2.63615341 -0.92689887 0 0 Z " fill="#474749" transform="translate(774,416)"/>
<path d="M0 0 C0.66 0.33 1.32 0.66 2 1 C0.41636406 4.74192458 -1.24022458 7.99268747 -4 11 C-8.63725079 12.21354955 -12.94454175 11.43108395 -17.5703125 10.4609375 C-19.89048974 10.02077526 -21.95726459 9.89758076 -24.3125 9.9375 C-25.529375 9.958125 -26.74625 9.97875 -28 10 C-28 9.67 -28 9.34 -28 9 C-27.39526855 8.89453857 -26.79053711 8.78907715 -26.16748047 8.68041992 C-23.40152038 8.19241835 -20.6383445 7.69009242 -17.875 7.1875 C-16.92367187 7.02185547 -15.97234375 6.85621094 -14.9921875 6.68554688 C-9.89993479 5.74843093 -5.45993808 4.78563346 -1 2 C-0.67 1.34 -0.34 0.68 0 0 Z " fill="#171719" transform="translate(1007,373)"/>
<path d="M0 0 C1.46096011 0.04254744 2.92128796 0.11294048 4.37988281 0.20629883 C5.53668549 0.250205 5.53668549 0.250205 6.71685791 0.29499817 C9.17396914 0.39377502 11.6276628 0.5280434 14.08300781 0.66333008 C15.75087503 0.73664114 17.41884598 0.80763184 19.08691406 0.8762207 C23.17063586 1.04921278 27.2516569 1.25404504 31.33300781 1.47583008 C31.33300781 1.80583008 31.33300781 2.13583008 31.33300781 2.47583008 C26.38300781 2.80583008 21.43300781 3.13583008 16.33300781 3.47583008 C16.33300781 3.80583008 16.33300781 4.13583008 16.33300781 4.47583008 C11.41798023 5.76818723 6.56010679 5.58718525 1.52050781 5.53833008 C0.63685547 5.53381836 -0.24679687 5.52930664 -1.15722656 5.5246582 C-3.32717778 5.51292874 -5.4970939 5.49499503 -7.66699219 5.47583008 C-5.39722005 1.71101396 -4.45703558 0.57834636 0 0 Z " fill="#1C1C1E" transform="translate(723.6669921875,674.524169921875)"/>
<path d="M0 0 C0 0.33 0 0.66 0 1 C-6.85275623 2.68661425 -13.5344465 3.55754631 -20.5625 4.125 C-22.07553711 4.25455078 -22.07553711 4.25455078 -23.61914062 4.38671875 C-26.07902365 4.59656659 -28.53922902 4.80088467 -31 5 C-31 5.33 -31 5.66 -31 6 C-41.56 5.67 -52.12 5.34 -63 5 C-63 4.67 -63 4.34 -63 4 C-61.93789307 3.9498877 -60.87578613 3.89977539 -59.78149414 3.84814453 C-55.75352269 3.65650192 -51.72596975 3.45698886 -47.69848633 3.25537109 C-45.97169946 3.16996735 -44.24481246 3.08655935 -42.51782227 3.00537109 C-32.20786438 2.51913727 -22.02673825 1.77486784 -11.79467773 0.39794922 C-7.80859712 -0.02007249 -4.00341476 -0.06616295 0 0 Z " fill="#313132" transform="translate(363,672)"/>
<path d="M0 0 C0.83287644 2.9049476 1.12219788 5.47513918 1.11352539 8.49316406 C1.11341209 9.81408051 1.11341209 9.81408051 1.11329651 11.16168213 C1.10813522 12.10348328 1.10297394 13.04528442 1.09765625 14.015625 C1.0962413 14.98659119 1.09482635 15.95755737 1.09336853 16.95794678 C1.08777663 20.05532935 1.07522559 23.15263932 1.0625 26.25 C1.05748395 28.35156146 1.05292123 30.45312404 1.04882812 32.5546875 C1.03780985 37.70315292 1.02055074 42.85156416 1 48 C0.67 48 0.34 48 0 48 C0 44.7 0 41.4 0 38 C-0.66 38 -1.32 38 -2 38 C-2.04957858 33.39186151 -2.08580385 28.78387963 -2.10986328 24.17553711 C-2.11989726 22.60910333 -2.13352754 21.04268817 -2.15087891 19.47631836 C-2.17524225 17.21984247 -2.18650916 14.96361506 -2.1953125 12.70703125 C-2.20563507 12.01100296 -2.21595764 11.31497467 -2.22659302 10.59785461 C-2.22750439 6.61415509 -1.7555827 3.58709891 0 0 Z " fill="#6B6B6B" transform="translate(623,522)"/>
<path d="M0 0 C0 0.66 0 1.32 0 2 C-1.32 2.33 -2.64 2.66 -4 3 C-4.04125 3.7425 -4.0825 4.485 -4.125 5.25 C-5.54490765 9.7125669 -9.1636541 11.02781688 -13.125 13.125 C-13.74375 13.41375 -14.3625 13.7025 -15 14 C-16.11375 14.556875 -16.11375 14.556875 -17.25 15.125 C-17.8275 15.41375 -18.405 15.7025 -19 16 C-15.53607328 8.56800699 -8.67508056 0 0 0 Z " fill="#050506" transform="translate(592,450)"/>
<path d="M0 0 C1.47339844 0.13535156 1.47339844 0.13535156 2.9765625 0.2734375 C5.375 0.625 5.375 0.625 6.375 1.625 C8.05683948 1.85787008 9.7462416 2.03764166 11.4375 2.1875 C12.81615234 2.31318359 12.81615234 2.31318359 14.22265625 2.44140625 C15.28806641 2.53228516 15.28806641 2.53228516 16.375 2.625 C16.375 2.955 16.375 3.285 16.375 3.625 C14.6734375 3.8415625 14.6734375 3.8415625 12.9375 4.0625 C9.56722799 4.23671478 9.56722799 4.23671478 8.375 5.625 C2.6927849 6.71308374 -2.85314851 6.72952045 -8.625 6.625 C-8.625 6.295 -8.625 5.965 -8.625 5.625 C-7.490625 5.480625 -6.35625 5.33625 -5.1875 5.1875 C-1.81722799 5.01328522 -1.81722799 5.01328522 -0.625 3.625 C-3.265 3.295 -5.905 2.965 -8.625 2.625 C-8.625 1.965 -8.625 1.305 -8.625 0.625 C-5.34544768 -0.46818411 -3.41030914 -0.33293255 0 0 Z " fill="#1B1B1E" transform="translate(668.625,400.375)"/>
<path d="M0 0 C0.99 0.495 0.99 0.495 2 1 C2.59765625 3.6875 2.59765625 3.6875 3.0625 7 C3.30764104 10.81811932 3.30764104 10.81811932 5 14 C5.08871273 17.02977804 5.1151935 20.03667022 5.09765625 23.06640625 C5.0962413 23.97502914 5.09482635 24.88365204 5.09336853 25.81980896 C5.08775193 28.73407221 5.07519665 31.64825981 5.0625 34.5625 C5.05748714 36.53320202 5.05292386 38.50390524 5.04882812 40.47460938 C5.03777711 45.31643559 5.02050138 50.15820495 5 55 C4.67 55 4.34 55 4 55 C3.98541748 54.08001221 3.97083496 53.16002441 3.95581055 52.2121582 C3.64496811 34.61496117 3.17342311 17.36401324 0 0 Z " fill="#A6A6A6" transform="translate(974,552)"/>
<path d="M0 0 C6.15904953 9.2385743 6.34988622 22.22257862 4.4921875 32.92578125 C4.32976562 33.61027344 4.16734375 34.29476562 4 35 C4.99 35.33 5.98 35.66 7 36 C5.68 36 4.36 36 3 36 C2.96241577 35.00818726 2.96241577 35.00818726 2.92407227 33.99633789 C2.80846898 31.01817695 2.68558246 28.0403608 2.5625 25.0625 C2.52318359 24.02158203 2.48386719 22.98066406 2.44335938 21.90820312 C2.40146484 20.91884766 2.35957031 19.92949219 2.31640625 18.91015625 C2.27974854 17.99371338 2.24309082 17.07727051 2.20532227 16.13305664 C2.22996136 14.0179272 2.22996136 14.0179272 1 13 C0.76518307 10.81707226 0.58636677 8.62796826 0.4375 6.4375 C0.35371094 5.23996094 0.26992188 4.04242187 0.18359375 2.80859375 C0.12300781 1.88175781 0.06242187 0.95492188 0 0 Z " fill="#8E8E8E" transform="translate(460,511)"/>
<path d="M0 0 C4.29 0 8.58 0 13 0 C12.67 1.32 12.34 2.64 12 4 C6.42932723 5.59162079 1.78898419 6.20674944 -4 6 C-3.01 5.67 -2.02 5.34 -1 5 C-0.67 3.35 -0.34 1.7 0 0 Z " fill="#0D0D0F" transform="translate(794,380)"/>
<path d="M0 0 C12.03942433 -0.13873856 23.98321123 0.26131705 36 1 C36 1.33 36 1.66 36 2 C21.98696157 2.91567112 8.04093755 3.12311627 -6 3 C-6 2.67 -6 2.34 -6 2 C-4.02 1.67 -2.04 1.34 0 1 C0 0.67 0 0.34 0 0 Z " fill="#212124" transform="translate(825,498)"/>
<path d="M0 0 C-2.23157635 1.11578818 -3.99642283 1.37037125 -6.46484375 1.71875 C-7.34720703 1.84636719 -8.22957031 1.97398437 -9.13867188 2.10546875 C-10.06228516 2.23566406 -10.98589844 2.36585938 -11.9375 2.5 C-13.75947112 2.75791042 -15.58110377 3.01822628 -17.40234375 3.28125 C-18.21179443 3.39533203 -19.02124512 3.50941406 -19.85522461 3.62695312 C-22.17504029 3.97557798 -22.17504029 3.97557798 -25 5 C-26.72795352 5.06802967 -28.45835365 5.08495645 -30.1875 5.0625 C-31.53908203 5.04896484 -31.53908203 5.04896484 -32.91796875 5.03515625 C-33.60503906 5.02355469 -34.29210937 5.01195312 -35 5 C-34.67 4.34 -34.34 3.68 -34 3 C-31.48218962 2.54997081 -29.03765026 2.20523374 -26.5 1.9375 C-21.87326069 1.81191005 -21.87326069 1.81191005 -18 0 C-15.73493088 -0.26372085 -13.46196727 -0.46103223 -11.1875 -0.625 C-9.32158203 -0.76808594 -9.32158203 -0.76808594 -7.41796875 -0.9140625 C-4.60356127 -0.98482475 -2.63107091 -0.88806927 0 0 Z " fill="#5D5D5F" transform="translate(902,396)"/>
<path d="M0 0 C3.85415052 -0.02923559 7.70827215 -0.04687777 11.5625 -0.0625 C12.64853516 -0.07087891 13.73457031 -0.07925781 14.85351562 -0.08789062 C20.34832611 -0.10459218 25.58961935 0.01417741 31 1 C31 1.33 31 1.66 31 2 C27.54227657 2.20005983 24.08383018 2.38267635 20.625 2.5625 C19.65949219 2.61857422 18.69398438 2.67464844 17.69921875 2.73242188 C11.3574194 3.05163996 5.29611775 2.82870943 -1 2 C-0.67 1.34 -0.34 0.68 0 0 Z " fill="#1B1B1C" transform="translate(710,497)"/>
<path d="M0 0 C-3.28463659 2.18975773 -6.20696275 2.99806563 -10 4 C-10 4.33 -10 4.66 -10 5 C-15.28 5 -20.56 5 -26 5 C-18.65844269 -0.50616798 -8.94957066 -0.30337528 0 0 Z " fill="#454547" transform="translate(178,505)"/>
<path d="M0 0 C0.33 0.99 0.66 1.98 1 3 C2.32 2.34 3.64 1.68 5 1 C5.31263383 7.87794433 5.31263383 7.87794433 3 11 C1 11.625 1 11.625 -1 12 C-1.66 12.66 -2.32 13.32 -3 14 C-2.40380045 9.13103697 -1.43023178 4.67209049 0 0 Z " fill="#101012" transform="translate(1006,619)"/>
<path d="M0 0 C0 0.33 0 0.66 0 1 C-11.80401934 3.47277876 -22.90301429 5.20350069 -35 5 C-35 4.67 -35 4.34 -35 4 C-33.85660156 3.86722656 -32.71320312 3.73445313 -31.53515625 3.59765625 C-30.0442438 3.4194969 -28.55335982 3.24109918 -27.0625 3.0625 C-26.30775391 2.97548828 -25.55300781 2.88847656 -24.77539062 2.79882812 C-21.07812542 2.65675901 -21.07812542 2.65675901 -18 1 C-12.02527946 0.05662307 -6.03562907 -0.11177091 0 0 Z " fill="#5A5A5C" transform="translate(675,431)"/>
<path d="M0 0 C1.41623216 -0.05447047 2.83308191 -0.09300508 4.25 -0.125 C5.03890625 -0.14820313 5.8278125 -0.17140625 6.640625 -0.1953125 C9.20731941 0.0171622 10.7916067 0.71345895 13 2 C12.67 2.33 12.34 2.66 12 3 C14.97 3.495 14.97 3.495 18 4 C17.67 4.66 17.34 5.32 17 6 C14.66705225 6.04241723 12.33297433 6.04092937 10 6 C9.67 5.67 9.34 5.34 9 5 C7.65252916 4.76924918 6.29622435 4.58846937 4.9375 4.4375 C3.638125 4.293125 2.33875 4.14875 1 4 C1.33 3.34 1.66 2.68 2 2 C1.34 1.34 0.68 0.68 0 0 Z " fill="#202022" transform="translate(861,500)"/>
<path d="M0 0 C0.66 0.33 1.32 0.66 2 1 C2 1.66 2 2.32 2 3 C-0.8125 5.1875 -0.8125 5.1875 -4 7 C-4.99 6.67 -5.98 6.34 -7 6 C-9.06145107 5.931009 -11.12501401 5.91532273 -13.1875 5.9375 C-14.27417969 5.94652344 -15.36085938 5.95554687 -16.48046875 5.96484375 C-17.31191406 5.97644531 -18.14335937 5.98804688 -19 6 C-19 5.67 -19 5.34 -19 5 C-18.04738281 4.80664062 -17.09476562 4.61328125 -16.11328125 4.4140625 C-14.23189453 4.02347656 -14.23189453 4.02347656 -12.3125 3.625 C-11.07113281 3.36976563 -9.82976562 3.11453125 -8.55078125 2.8515625 C-5.06663225 2.11235151 -5.06663225 2.11235151 -2.16796875 0.8359375 C-1.45253906 0.56007813 -0.73710937 0.28421875 0 0 Z " fill="#262628" transform="translate(407,662)"/>
<path d="M0 0 C8.25 0 16.5 0 25 0 C24.67 0.99 24.34 1.98 24 3 C18.39 3 12.78 3 7 3 C7 2.67 7 2.34 7 2 C4.69 1.67 2.38 1.34 0 1 C0 0.67 0 0.34 0 0 Z " fill="#19191A" transform="translate(860,401)"/>
<path d="M0 0 C1.10336858 3.31010574 1.13531135 5.6813976 0 9 C-2.56310828 10.7941758 -3.83119306 11 -7 11 C-7.33 11.66 -7.66 12.32 -8 13 C-8.66 12.67 -9.32 12.34 -10 12 C-9.21654285 10.82780457 -8.42297164 9.66236332 -7.625 8.5 C-7.18414062 7.8503125 -6.74328125 7.200625 -6.2890625 6.53125 C-5.86367187 6.0259375 -5.43828125 5.520625 -5 5 C-4.34 5 -3.68 5 -3 5 C-2.690625 4.360625 -2.38125 3.72125 -2.0625 3.0625 C-1 1 -1 1 0 0 Z " fill="#353538" transform="translate(123,525)"/>
<path d="M0 0 C-0.33 0.66 -0.66 1.32 -1 2 C1.97 2.495 1.97 2.495 5 3 C5 3.33 5 3.66 5 4 C0.05 4.66 -4.9 5.32 -10 6 C-10 5.34 -10 4.68 -10 4 C-10.99 3.67 -11.98 3.34 -13 3 C-12.67 2.34 -12.34 1.68 -12 1 C-8.01624339 -0.17169312 -4.12560776 -0.08089427 0 0 Z " fill="#212121" transform="translate(614,410)"/>
<path d="M0 0 C1.32 0.33 2.64 0.66 4 1 C4 2.98 4 4.96 4 7 C3.01 7 2.02 7 1 7 C1 6.34 1 5.68 1 5 C0.34 5 -0.32 5 -1 5 C-1.144375 5.61875 -1.28875 6.2375 -1.4375 6.875 C-2 9 -2 9 -3 11 C-3.66 11 -4.32 11 -5 11 C-5 12.98 -5 14.96 -5 17 C-5.66 17 -6.32 17 -7 17 C-7.33 17.99 -7.66 18.98 -8 20 C-8 18.68 -8 17.36 -8 16 C-7.34 16 -6.68 16 -6 16 C-6.04125 15.071875 -6.0825 14.14375 -6.125 13.1875 C-6 10 -6 10 -4 7 C-3.34 7 -2.68 7 -2 7 C-1.855625 6.401875 -1.71125 5.80375 -1.5625 5.1875 C-1.1127561 3.43849596 -0.57107659 1.71322977 0 0 Z " fill="#313132" transform="translate(531,561)"/>
<path d="M0 0 C6.43311296 -0.09507063 12.65758005 -0.15316726 19 1 C19 1.66 19 2.32 19 3 C19.88751953 2.96519531 19.88751953 2.96519531 20.79296875 2.9296875 C25.33801959 2.82588536 28.85940059 2.86291643 33 5 C30.10471229 6.08573289 27.9223448 5.91023785 24.9375 5.4375 C20.95214345 4.56737675 20.95214345 4.56737675 18 7 C18 6.34 18 5.68 18 5 C17.34 4.67 16.68 4.34 16 4 C16 3.67 16 3.34 16 3 C10.72 2.34 5.44 1.68 0 1 C0 0.67 0 0.34 0 0 Z " fill="#59595B" transform="translate(385,500)"/>
<path d="M0 0 C3.63 0 7.26 0 11 0 C10 2 10 2 8.15234375 2.6328125 C7.42144531 2.79523438 6.69054687 2.95765625 5.9375 3.125 C4.83728516 3.37636719 4.83728516 3.37636719 3.71484375 3.6328125 C3.14894531 3.75398438 2.58304688 3.87515625 2 4 C4.31 4 6.62 4 9 4 C8.67 4.66 8.34 5.32 8 6 C5.71484375 6.4140625 5.71484375 6.4140625 2.9375 6.625 C2.01839844 6.69976562 1.09929688 6.77453125 0.15234375 6.8515625 C-0.55792969 6.90054687 -1.26820313 6.94953125 -2 7 C-2 7.66 -2 8.32 -2 9 C-3.65 9.33 -5.3 9.66 -7 10 C-5.1875 8 -5.1875 8 -3 6 C-2.01 6 -1.02 6 0 6 C0 4.02 0 2.04 0 0 Z " fill="#2D2D2F" transform="translate(636,472)"/>
<path d="M0 0 C2.81256281 -0.02684312 5.62487241 -0.04676188 8.4375 -0.0625 C9.23994141 -0.07087891 10.04238281 -0.07925781 10.86914062 -0.08789062 C12.91295221 -0.0965143 14.95683902 -0.0522815 17 0 C17.33 0.33 17.66 0.66 18 1 C20.85877909 1.23701239 23.69883297 1.42219182 26.5625 1.5625 C27.36880859 1.60568359 28.17511719 1.64886719 29.00585938 1.69335938 C31.00368805 1.79975262 33.0018207 1.90040888 35 2 C35 2.33 35 2.66 35 3 C23.12216874 3.21705681 11.73158438 2.99081432 0 1 C0 0.67 0 0.34 0 0 Z " fill="#4B4B4C" transform="translate(702,646)"/>
<path d="M0 0 C0.33 0.66 0.66 1.32 1 2 C3.14576637 2.02685938 5.29162645 2.04633088 7.4375 2.0625 C9.22994141 2.07990234 9.22994141 2.07990234 11.05859375 2.09765625 C13.88873341 2.33901792 13.88873341 2.33901792 15 1 C16.85287502 0.92773498 18.70833878 0.9161878 20.5625 0.9375 C21.57441406 0.94652344 22.58632813 0.95554687 23.62890625 0.96484375 C24.80259766 0.98224609 24.80259766 0.98224609 26 1 C26 1.33 26 1.66 26 2 C22.7 2 19.4 2 16 2 C16 2.66 16 3.32 16 4 C10.06 4.33 4.12 4.66 -2 5 C-2 4.34 -2 3.68 -2 3 C-2.66 3 -3.32 3 -4 3 C-4 2.34 -4 1.68 -4 1 C-2.68 0.67 -1.36 0.34 0 0 Z " fill="#4A4A4C" transform="translate(870,369)"/>
<path d="M0 0 C0 0.33 0 0.66 0 1 C-2.05078125 1.22786458 -4.1015625 1.45572917 -6.15234375 1.68359375 C-8.01140229 1.81886614 -8.01140229 1.81886614 -9 3 C-14.96351721 4.07822521 -20.96130397 4.09585232 -27 4 C-27 3.67 -27 3.34 -27 3 C-18.12809559 0.10698769 -9.27596155 -0.1776248 0 0 Z " fill="#626262" transform="translate(984,356)"/>
<path d="M0 0 C0.66 0 1.32 0 2 0 C1.25 2.9375 1.25 2.9375 0 6 C-2.125 6.875 -2.125 6.875 -4 7 C-4 6.34 -4 5.68 -4 5 C-4.63808594 4.95101562 -5.27617187 4.90203125 -5.93359375 4.8515625 C-6.75988281 4.77679687 -7.58617187 4.70203125 -8.4375 4.625 C-9.26121094 4.55539062 -10.08492188 4.48578125 -10.93359375 4.4140625 C-11.61550781 4.27742187 -12.29742187 4.14078125 -13 4 C-13.33 3.34 -13.66 2.68 -14 2 C-9.38 2 -4.76 2 0 2 C0 1.34 0 0.68 0 0 Z " fill="#353438" transform="translate(482,764)"/>
<path d="M0 0 C0.33 0.66 0.66 1.32 1 2 C0.5153125 2.4125 0.030625 2.825 -0.46875 3.25 C-5.54250509 7.62123516 -10.32152134 12.20953648 -15 17 C-15.33 16.01 -15.66 15.02 -16 14 C-10.96965614 8.76433598 -6.07070905 4.00408469 0 0 Z " fill="#C8C8C8" transform="translate(108,502)"/>
<path d="M0 0 C1.44197868 2.88395737 1.58833581 5.82430479 2 9 C1.0925 9.04125 0.185 9.0825 -0.75 9.125 C-4.27994174 9.72464389 -4.27994174 9.72464389 -6.375 13.0625 C-6.91125 14.031875 -7.4475 15.00125 -8 16 C-8 12.33540949 -6.93135459 11.07586101 -5 8 C-4.2265625 6.4221875 -4.2265625 6.4221875 -3.4375 4.8125 C-2 2 -2 2 0 0 Z " fill="#4B4B4D" transform="translate(498,636)"/>
<path d="M0 0 C0 0.33 0 0.66 0 1 C-1.13179687 1.13277344 -2.26359375 1.26554687 -3.4296875 1.40234375 C-4.91148179 1.5805342 -6.39325136 1.75893029 -7.875 1.9375 C-8.99455078 2.06801758 -8.99455078 2.06801758 -10.13671875 2.20117188 C-14.1953231 2.63326063 -14.1953231 2.63326063 -18 4 C-20.71760108 4.07181821 -23.40859388 4.09299506 -26.125 4.0625 C-26.87910156 4.05798828 -27.63320312 4.05347656 -28.41015625 4.04882812 C-30.27347127 4.03703499 -32.13674555 4.01909942 -34 4 C-34 3.67 -34 3.34 -34 3 C-29.38 3 -24.76 3 -20 3 C-20 2.34 -20 1.68 -20 1 C-13.29980211 0.29867087 -6.73742646 -0.11044961 0 0 Z " fill="#656566" transform="translate(214,500)"/>
<path d="M0 0 C-2.01105789 2.01105789 -3.69022973 2.99294411 -6.1875 4.3125 C-10.38358911 6.59386884 -14.17145492 9.14895579 -18 12 C-17.6875 10.0625 -17.6875 10.0625 -17 8 C-16.01 7.67 -15.02 7.34 -14 7 C-14 6.34 -14 5.68 -14 5 C-9.67712094 1.37931449 -5.74627325 -0.71828416 0 0 Z " fill="#19191B" transform="translate(579,425)"/>
<path d="M0 0 C5.28 0 10.56 0 16 0 C15.67 0.99 15.34 1.98 15 3 C9.72 2.67 4.44 2.34 -1 2 C-0.67 1.34 -0.34 0.68 0 0 Z " fill="#121215" transform="translate(334,677)"/>
<path d="M0 0 C2.0625 0.4375 2.0625 0.4375 4 1 C3.01 1 2.02 1 1 1 C1 1.66 1 2.32 1 3 C0.06027344 3.19916016 0.06027344 3.19916016 -0.8984375 3.40234375 C-2.12433594 3.66724609 -2.12433594 3.66724609 -3.375 3.9375 C-4.18710937 4.11152344 -4.99921875 4.28554688 -5.8359375 4.46484375 C-8.029463 4.92330693 -8.029463 4.92330693 -10 6 C-12.04055005 6.07065617 -14.08334257 6.08421976 -16.125 6.0625 C-17.22070312 6.05347656 -18.31640625 6.04445313 -19.4453125 6.03515625 C-20.70988281 6.01775391 -20.70988281 6.01775391 -22 6 C-22 5.67 -22 5.34 -22 5 C-21.05362671 4.82609741 -21.05362671 4.82609741 -20.08813477 4.64868164 C-17.24549319 4.12399519 -14.4040005 3.59332976 -11.5625 3.0625 C-10.56927734 2.88009766 -9.57605469 2.69769531 -8.55273438 2.50976562 C-7.60849609 2.33251953 -6.66425781 2.15527344 -5.69140625 1.97265625 C-4.81685791 1.81031494 -3.94230957 1.64797363 -3.04125977 1.48071289 C-1.01771936 1.1931161 -1.01771936 1.1931161 0 0 Z " fill="#545455" transform="translate(1001,377)"/>
<path d="M0 0 C4.29 0 8.58 0 13 0 C13 0.66 13 1.32 13 2 C10.23547967 3.38226016 7.9538637 3.09525387 4.875 3.0625 C3.77929688 3.05347656 2.68359375 3.04445313 1.5546875 3.03515625 C0.29011719 3.01775391 0.29011719 3.01775391 -1 3 C-0.67 2.01 -0.34 1.02 0 0 Z " fill="#030305" transform="translate(794,377)"/>
<path d="M0 0 C0 0.66 0 1.32 0 2 C0.94875 2.28875 1.8975 2.5775 2.875 2.875 C6 4 6 4 8 6 C2.5 6.36666667 2.5 6.36666667 0.125 4.625 C-1 3 -1 3 -1 1 C-2.65 1.66 -4.3 2.32 -6 3 C-6.99 2.01 -7.98 1.02 -9 0 C-5.52176885 -1.15941038 -3.54104422 -0.70820884 0 0 Z " fill="#2E2E30" transform="translate(460,760)"/>
<path d="M0 0 C0.66 0.66 1.32 1.32 2 2 C-2.29 2 -6.58 2 -11 2 C-10.67 1.34 -10.34 0.68 -10 0 C-6.18015204 -0.77811718 -3.73159669 -1.24386556 0 0 Z M-19 2 C-16.36 2 -13.72 2 -11 2 C-11 2.33 -11 2.66 -11 3 C-15.455 3.495 -15.455 3.495 -20 4 C-19.67 3.34 -19.34 2.68 -19 2 Z " fill="#040406" transform="translate(386,670)"/>
<path d="M0 0 C0 0.66 0 1.32 0 2 C-5.08086796 2.84681133 -9.84828377 3.09038099 -15 3 C-15 3.66 -15 4.32 -15 5 C-17.64 5 -20.28 5 -23 5 C-19.73330327 2.82220218 -17.7749839 2.49237313 -13.9375 1.9375 C-0.63339071 -0.01376936 -0.63339071 -0.01376936 0 0 Z " fill="#030304" transform="translate(908,395)"/>
<path d="M0 0 C0.66 0.33 1.32 0.66 2 1 C0.1738058 3.53853945 -1.6736759 5.90102121 -4 8 C-7.125 8.3125 -7.125 8.3125 -10 8 C-12.30230766 8.89831016 -12.30230766 8.89831016 -14 10 C-10.50912907 5.9957657 -8.35048061 4.37328935 -3 4 C-3 3.34 -3 2.68 -3 2 C-2.01 1.34 -1.02 0.68 0 0 Z " fill="#3E3E3E" transform="translate(483,567)"/>
<path d="M0 0 C1.65 0.33 3.3 0.66 5 1 C1.80626843 4.19373157 -2.06829832 4.90188182 -6.4609375 5.125 C-8.64439214 5.125 -10.81849415 5.08904106 -13 5 C-13 4.67 -13 4.34 -13 4 C-8.49646738 2.24252386 -4.82360189 1.80705592 0 2 C0 1.34 0 0.68 0 0 Z " fill="#030305" transform="translate(386,637)"/>
<path d="M0 0 C0.33 0 0.66 0 1 0 C1 2.33333333 1 4.66666667 1 7 C1.31478446 8.33783393 1.64587656 9.67203709 2 11 C1.071875 11.12375 1.071875 11.12375 0.125 11.25 C-2.18437567 11.81258459 -2.18437567 11.81258459 -3.25 14.0625 C-3.4975 14.701875 -3.745 15.34125 -4 16 C-5.45047396 13.09905209 -4.45356803 11.44027404 -3.5625 8.375 C-3.27503906 7.37210937 -2.98757813 6.36921875 -2.69140625 5.3359375 C-2.46324219 4.56507813 -2.23507812 3.79421875 -2 3 C-1.34 3 -0.68 3 0 3 C0 2.01 0 1.02 0 0 Z " fill="#141415" transform="translate(568,473)"/>
<path d="M0 0 C0.33 0 0.66 0 1 0 C1.45572917 1.953125 1.91145833 3.90625 2.3671875 5.859375 C2.92890438 8.02238989 2.92890438 8.02238989 4.03125 9.9375 C5.19853292 12.42268299 5.40950595 14.52040873 5.625 17.25 C5.69976563 18.14203125 5.77453125 19.0340625 5.8515625 19.953125 C5.90054688 20.62859375 5.94953125 21.3040625 6 22 C3.66828982 19.66828982 3.31061716 18.1450503 2.4375 15 C1.44538827 11.41233901 1.44538827 11.41233901 0 8 C-0.13415472 5.3276379 -0.04318541 2.67749512 0 0 Z " fill="#585859" transform="translate(597,593)"/>
<path d="M0 0 C0 0.33 0 0.66 0 1 C-1.60681641 1.19916016 -1.60681641 1.19916016 -3.24609375 1.40234375 C-4.64325769 1.5805056 -6.04039159 1.75890319 -7.4375 1.9375 C-8.14455078 2.02451172 -8.85160156 2.11152344 -9.58007812 2.20117188 C-13.08817968 2.38216191 -13.08817968 2.38216191 -16 4 C-18.01964199 4.07244053 -20.04167124 4.08377188 -22.0625 4.0625 C-23.16722656 4.05347656 -24.27195313 4.04445313 -25.41015625 4.03515625 C-26.69212891 4.01775391 -26.69212891 4.01775391 -28 4 C-28 3.67 -28 3.34 -28 3 C-26.72125 2.87625 -25.4425 2.7525 -24.125 2.625 C-20.68772678 2.25325729 -17.37488628 1.68336045 -14 0.9375 C-9.24200038 -0.06928675 -4.85446979 -0.1565958 0 0 Z " fill="#99999A" transform="translate(177,479)"/>
<path d="M0 0 C-0.33 0.66 -0.66 1.32 -1 2 C-3.32156597 2.40729228 -5.6568787 2.74438677 -8 3 C-7.34 3.66 -6.68 4.32 -6 5 C-7.65 5 -9.3 5 -11 5 C-11 4.67 -11 4.34 -11 4 C-13.31 3.67 -15.62 3.34 -18 3 C-18 2.67 -18 2.34 -18 2 C-11.88019467 0.59545452 -6.28260706 -0.23268915 0 0 Z " fill="#060508" transform="translate(206,502)"/>
<path d="M0 0 C1.8871875 0.061875 1.8871875 0.061875 3.8125 0.125 C3.8125 1.115 3.8125 2.105 3.8125 3.125 C0.67751708 4.98276765 -1.56221432 5.32640476 -5.1875 5.125 C-3.8675 4.795 -2.5475 4.465 -1.1875 4.125 C-1.1875 3.465 -1.1875 2.805 -1.1875 2.125 C-3.1675 2.125 -5.1475 2.125 -7.1875 2.125 C-4.09861478 0.06574319 -3.47814073 -0.1140374 0 0 Z " fill="#323233" transform="translate(960.1875,384.875)"/>
<path d="M0 0 C1.77007714 -0.08114106 3.54122098 -0.13925505 5.3125 -0.1875 C6.29863281 -0.22230469 7.28476562 -0.25710938 8.30078125 -0.29296875 C11 0 11 0 12.85546875 1.51171875 C13.23316406 2.00285156 13.61085938 2.49398438 14 3 C4.58997722 3.3690205 4.58997722 3.3690205 0 1 C0 0.67 0 0.34 0 0 Z " fill="#060607" transform="translate(406,474)"/>
<path d="M0 0 C1.37478516 0.01740234 1.37478516 0.01740234 2.77734375 0.03515625 C3.69644531 0.04417969 4.61554687 0.05320312 5.5625 0.0625 C6.27277344 0.07410156 6.98304688 0.08570313 7.71484375 0.09765625 C7.38484375 0.75765625 7.05484375 1.41765625 6.71484375 2.09765625 C1.06934767 3.29882563 -4.53417411 3.20179878 -10.28515625 3.09765625 C-10.28515625 2.76765625 -10.28515625 2.43765625 -10.28515625 2.09765625 C-9.15078125 1.95328125 -8.01640625 1.80890625 -6.84765625 1.66015625 C-3.70011635 1.16317627 -2.86991575 0.12264597 0 0 Z " fill="#5F5F60" transform="translate(670.28515625,403.90234375)"/>
<path d="M0 0 C1 2 1 2 0.00390625 5.0390625 C-0.47175781 6.22242188 -0.94742187 7.40578125 -1.4375 8.625 C-1.91058594 9.81351563 -2.38367188 11.00203125 -2.87109375 12.2265625 C-3.24363281 13.14179687 -3.61617188 14.05703125 -4 15 C-5.1700097 11.08263419 -4.69584017 8.02040985 -4 4 C-3.01 3.67 -2.02 3.34 -1 3 C-0.67 2.01 -0.34 1.02 0 0 Z " fill="#505050" transform="translate(490,579)"/>
<path d="M0 0 C4.75 0.875 4.75 0.875 7 2 C7 3.32 7 4.64 7 6 C6.01 6.495 6.01 6.495 5 7 C2.375 5.5625 2.375 5.5625 0 4 C0.66 3.67 1.32 3.34 2 3 C2 2.34 2 1.68 2 1 C1.34 0.67 0.68 0.34 0 0 Z " fill="#202022" transform="translate(117,635)"/>
<path d="M0 0 C0.66 0.33 1.32 0.66 2 1 C1.34 2.98 0.68 4.96 0 7 C-0.66 7 -1.32 7 -2 7 C-2.33 9.31 -2.66 11.62 -3 14 C-3.66 14 -4.32 14 -5 14 C-5 14.99 -5 15.98 -5 17 C-5.66 16.67 -6.32 16.34 -7 16 C-6.67 15.01 -6.34 14.02 -6 13 C-5.34 13 -4.68 13 -4 13 C-3.896875 11.96875 -3.79375 10.9375 -3.6875 9.875 C-3.00872203 6.04916055 -1.88841205 3.36629975 0 0 Z " fill="#9A9A9A" transform="translate(476,612)"/>
<path d="M0 0 C0 1.98 0 3.96 0 6 C-0.66 6 -1.32 6 -2 6 C-2 4.68 -2 3.36 -2 2 C-3.98 2 -5.96 2 -8 2 C-8 2.66 -8 3.32 -8 4 C-9.32 3.67 -10.64 3.34 -12 3 C-4.71428571 -0.42857143 -4.71428571 -0.42857143 0 0 Z " fill="#565656" transform="translate(497,563)"/>
<path d="M0 0 C2.20756126 0.48415327 4.02413293 1.22748542 5.94140625 2.42578125 C5.94140625 3.08578125 5.94140625 3.74578125 5.94140625 4.42578125 C0.99140625 3.43578125 -3.95859375 2.44578125 -9.05859375 1.42578125 C-5.57961952 -0.8935349 -4.02414877 -0.6151093 0 0 Z " fill="#050507" transform="translate(559.05859375,562.57421875)"/>
<path d="M0 0 C0.66 0.33 1.32 0.66 2 1 C1.2884375 1.6496875 1.2884375 1.6496875 0.5625 2.3125 C-1.23686957 4.02309613 -1.23686957 4.02309613 -2 7 C-4.06640625 7.73046875 -4.06640625 7.73046875 -6.5625 8.1875 C-7.38878906 8.34605469 -8.21507812 8.50460937 -9.06640625 8.66796875 C-9.70449219 8.77753906 -10.34257812 8.88710938 -11 9 C-8.77276018 6.66034429 -6.41043353 4.72900834 -3.8125 2.8125 C-3.09707031 2.28269531 -2.38164062 1.75289062 -1.64453125 1.20703125 C-1.10183594 0.80871094 -0.55914062 0.41039062 0 0 Z " fill="#4B4B4D" transform="translate(429,648)"/>
<path d="M0 0 C4.62 0.66 9.24 1.32 14 2 C14 2.33 14 2.66 14 3 C8.72 3 3.44 3 -2 3 C-1.34 2.01 -0.68 1.02 0 0 Z " fill="#131315" transform="translate(293,647)"/>
<path d="M0 0 C4.29 0.33 8.58 0.66 13 1 C9.80107719 2.5994614 7.64537424 3.42595236 4.25 4.125 C3.45078125 4.29257812 2.6515625 4.46015625 1.828125 4.6328125 C1.22484375 4.75398437 0.6215625 4.87515625 0 5 C0 3.33333333 0 1.66666667 0 0 Z " fill="#5D5D5E" transform="translate(484,534)"/>
<path d="M0 0 C2.0625 0.4375 2.0625 0.4375 4 1 C2.1875 4 2.1875 4 0 7 C-0.99 7 -1.98 7 -3 7 C-1.125 1.125 -1.125 1.125 0 0 Z " fill="#222223" transform="translate(446,700)"/>
<path d="M0 0 C1.21236328 0.01353516 1.21236328 0.01353516 2.44921875 0.02734375 C3.37154297 0.04474609 3.37154297 0.04474609 4.3125 0.0625 C3.9825 0.7225 3.6525 1.3825 3.3125 2.0625 C0.58984375 2.4765625 0.58984375 2.4765625 -2.75 2.6875 C-3.85472656 2.76226562 -4.95945312 2.83703125 -6.09765625 2.9140625 C-6.95230469 2.96304687 -7.80695312 3.01203125 -8.6875 3.0625 C-6.88341097 -0.54567807 -3.60175697 -0.05219938 0 0 Z " fill="#020203" transform="translate(645.6875,473.9375)"/>
<path d="M0 0 C-2.51822275 2.42472438 -3.67533206 2.99254989 -7.234375 3.07421875 C-8.39453125 2.94660156 -9.5546875 2.81898438 -10.75 2.6875 C-11.92046875 2.56761719 -13.0909375 2.44773437 -14.296875 2.32421875 C-15.18890625 2.21722656 -16.0809375 2.11023438 -17 2 C-17 1.67 -17 1.34 -17 1 C-11.29014022 0.25983299 -5.75813575 -0.10469338 0 0 Z " fill="#474747" transform="translate(713,425)"/>
<path d="M0 0 C-3.76859072 2.51239382 -6.26239249 3.12663199 -10.6875 3.0625 C-11.89986328 3.04896484 -11.89986328 3.04896484 -13.13671875 3.03515625 C-14.05904297 3.01775391 -14.05904297 3.01775391 -15 3 C-11.07677056 -0.92322944 -5.25785342 -0.10515707 0 0 Z " fill="#020202" transform="translate(778,416)"/>
<path d="M0 0 C1.21236328 0.01353516 1.21236328 0.01353516 2.44921875 0.02734375 C3.37154297 0.04474609 3.37154297 0.04474609 4.3125 0.0625 C3.9825 0.7225 3.6525 1.3825 3.3125 2.0625 C0.58984375 2.4765625 0.58984375 2.4765625 -2.75 2.6875 C-3.85472656 2.76226562 -4.95945312 2.83703125 -6.09765625 2.9140625 C-6.95230469 2.96304687 -7.80695312 3.01203125 -8.6875 3.0625 C-6.88341097 -0.54567807 -3.60175697 -0.05219938 0 0 Z " fill="#111114" transform="translate(937.6875,391.9375)"/>
<path d="M0 0 C0.99 0 1.98 0 3 0 C3 0.66 3 1.32 3 2 C-0.8503105 4.56687367 -2.58569763 3.83288724 -7 3 C-6.67 2.34 -6.34 1.68 -6 1 C-4.7934375 1.0309375 -4.7934375 1.0309375 -3.5625 1.0625 C-1.06645115 1.29633621 -1.06645115 1.29633621 0 0 Z " fill="#050508" transform="translate(456,761)"/>
<path d="M0 0 C7.57142857 2.85714286 7.57142857 2.85714286 10 7 C9.01 7.33 8.02 7.66 7 8 C6.34 7.67 5.68 7.34 5 7 C5 6.01 5 5.02 5 4 C4.01 4.33 3.02 4.66 2 5 C2 4.34 2 3.68 2 3 C1.34 3 0.68 3 0 3 C0 2.01 0 1.02 0 0 Z " fill="#1C1C1D" transform="translate(403,725)"/>
<path d="M0 0 C4.95 0.99 4.95 0.99 10 2 C10.33 3.65 10.66 5.3 11 7 C7.22272911 5.18690997 3.62730178 3.0926741 0 1 C0 0.67 0 0.34 0 0 Z " fill="#3D3D3D" transform="translate(447,721)"/>
<path d="M0 0 C-0.38520564 2.53910197 -0.70097943 3.72751123 -2.62890625 5.484375 C-3.26699219 5.90203125 -3.90507812 6.3196875 -4.5625 6.75 C-5.20316406 7.17796875 -5.84382813 7.6059375 -6.50390625 8.046875 C-7.24447266 8.51867187 -7.24447266 8.51867187 -8 9 C-7.21550462 4.87478833 -4.69848926 0 0 0 Z " fill="#121212" transform="translate(430,677)"/>
<path d="M0 0 C0.99 0.33 1.98 0.66 3 1 C-0.96 4.465 -0.96 4.465 -5 8 C-5.33 7.01 -5.66 6.02 -6 5 C-5.01 4.67 -4.02 4.34 -3 4 C-3 3.34 -3 2.68 -3 2 C-2.01 1.34 -1.02 0.68 0 0 Z " fill="#040405" transform="translate(472,575)"/>
<path d="M0 0 C0.66 0.33 1.32 0.66 2 1 C0.4375 3.9375 0.4375 3.9375 -2 7 C-5.75 7.875 -5.75 7.875 -9 8 C-6.14723863 5.06799526 -3.34920216 2.35684596 0 0 Z " fill="#4D4D4F" transform="translate(133,517)"/>
<path d="M0 0 C3.63 0.33 7.26 0.66 11 1 C11 1.66 11 2.32 11 3 C5.04296875 3.29296875 5.04296875 3.29296875 3 3 C2.01 2.01 1.02 1.02 0 0 Z " fill="#050506" transform="translate(922,479)"/>
<path d="M0 0 C0.66 1.32 1.32 2.64 2 4 C-0.66666667 5.33333333 -3.33333333 6.66666667 -6 8 C-4.55746343 4.63408134 -2.66735273 2.48952921 0 0 Z " fill="#3C3C3F" transform="translate(579,458)"/>
<path d="M0 0 C1.32 0 2.64 0 4 0 C4 0.66 4 1.32 4 2 C4.66 2 5.32 2 6 2 C6 2.66 6 3.32 6 4 C3.69 4.33 1.38 4.66 -1 5 C-0.34 4.67 0.32 4.34 1 4 C1 3.34 1 2.68 1 2 C0.34 1.67 -0.32 1.34 -1 1 C-0.67 0.67 -0.34 0.34 0 0 Z " fill="#1E1E20" transform="translate(862,370)"/>
<path d="M0 0 C-0.99 1.32 -1.98 2.64 -3 4 C-4.65 3.67 -6.3 3.34 -8 3 C-8 2.34 -8 1.68 -8 1 C-4.93251126 -0.86240388 -3.40254489 -1.2151946 0 0 Z " fill="#404042" transform="translate(417,659)"/>
<path d="M0 0 C0.68359375 1.671875 0.68359375 1.671875 1 4 C-0.21484375 6.578125 -0.21484375 6.578125 -1.9375 9.25 C-2.50339844 10.14203125 -3.06929687 11.0340625 -3.65234375 11.953125 C-4.09707031 12.62859375 -4.54179688 13.3040625 -5 14 C-6 11 -6 11 -4.78515625 8.30078125 C-4.21667969 7.31464844 -3.64820313 6.32851563 -3.0625 5.3125 C-2.49660156 4.31863281 -1.93070313 3.32476562 -1.34765625 2.30078125 C-0.90292969 1.54152344 -0.45820312 0.78226562 0 0 Z " fill="#757575" transform="translate(530,489)"/>
<path d="M0 0 C2.97 0.33 5.94 0.66 9 1 C9 1.66 9 2.32 9 3 C10.32 3.66 11.64 4.32 13 5 C8.02693484 4.50269348 4.36200187 3.44697666 0 1 C0 0.67 0 0.34 0 0 Z " fill="#79787C" transform="translate(936,484)"/>
<path d="M0 0 C0 1.98 0 3.96 0 6 C-1.65 6.66 -3.3 7.32 -5 8 C-4.42415568 5.61435923 -3.77772405 3.33317216 -3 1 C-1 0 -1 0 0 0 Z " fill="#202020" transform="translate(575,465)"/>
<path d="M0 0 C0.33 0.66 0.66 1.32 1 2 C0.34 2 -0.32 2 -1 2 C-1.433125 2.928125 -1.433125 2.928125 -1.875 3.875 C-3 6 -3 6 -5 8 C-5.99 8 -6.98 8 -8 8 C-6.88333826 4.65001479 -6.25305075 4.20659778 -3.4375 2.3125 C-2.79683594 1.87550781 -2.15617188 1.43851562 -1.49609375 0.98828125 C-1.00238281 0.66214844 -0.50867188 0.33601563 0 0 Z " fill="#404041" transform="translate(588,450)"/>
<path d="M0 0 C-1.50223584 4.20626034 -4.28550034 5.73900021 -8 8 C-7.65978036 4.82461668 -6.97533396 3.97723135 -4.5625 1.75 C-2 0 -2 0 0 0 Z " fill="#131315" transform="translate(421,685)"/>
<path d="M0 0 C0.66 1.32 1.32 2.64 2 4 C2.66 3.67 3.32 3.34 4 3 C4 3.99 4 4.98 4 6 C3.38125 6.12375 2.7625 6.2475 2.125 6.375 C-0.19120832 6.87197356 -0.19120832 6.87197356 -2 9 C-1.125 2.25 -1.125 2.25 0 0 Z " fill="#303032" transform="translate(1005,624)"/>
<path d="M0 0 C0.85276722 2.41707906 1.12087895 3.64003451 0.29296875 6.10546875 C-0.25423828 7.13607422 -0.25423828 7.13607422 -0.8125 8.1875 C-1.34810547 9.22970703 -1.34810547 9.22970703 -1.89453125 10.29296875 C-3 12 -3 12 -5 13 C-4.39254603 8.14036821 -2.27241033 4.2594482 0 0 Z " fill="#727272" transform="translate(506,617)"/>
<path d="M0 0 C0 0.99 0 1.98 0 3 C-6.0546875 3.1953125 -6.0546875 3.1953125 -8 3 C-8.66 2.34 -9.32 1.68 -10 1 C-6.56484998 0.37542727 -3.50935186 0 0 0 Z " fill="#111014" transform="translate(689,432)"/>
<path d="M0 0 C-4.75890529 2.37945265 -7.54838765 3.10095578 -13 3 C-12.67 2.34 -12.34 1.68 -12 1 C-8.01624339 -0.17169312 -4.12560776 -0.08089427 0 0 Z " fill="#020203" transform="translate(691,430)"/>
<path d="M0 0 C4.455 1.98 4.455 1.98 9 4 C9 4.33 9 4.66 9 5 C6.125 5.625 6.125 5.625 3 6 C2.34 5.34 1.68 4.68 1 4 C1.33 3.34 1.66 2.68 2 2 C1.34 2 0.68 2 0 2 C0 1.34 0 0.68 0 0 Z " fill="#282829" transform="translate(97,659)"/>
<path d="M0 0 C0.33 0.66 0.66 1.32 1 2 C0.34 2 -0.32 2 -1 2 C-1.0825 2.78375 -1.165 3.5675 -1.25 4.375 C-2 7 -2 7 -4.0625 8.3125 C-5.0215625 8.6528125 -5.0215625 8.6528125 -6 9 C-5.67 7.68 -5.34 6.36 -5 5 C-4.34 5 -3.68 5 -3 5 C-2.87625 4.360625 -2.7525 3.72125 -2.625 3.0625 C-2.41875 2.381875 -2.2125 1.70125 -2 1 C-1.34 0.67 -0.68 0.34 0 0 Z " fill="#040405" transform="translate(448,629)"/>
<path d="M0 0 C0.66 1.32 1.32 2.64 2 4 C0.625 5.5 0.625 5.5 -1 7 C-1.66 7 -2.32 7 -3 7 C-3 7.66 -3 8.32 -3 9 C-3.66 8.67 -4.32 8.34 -5 8 C-3.35 5.36 -1.7 2.72 0 0 Z " fill="#B9B9BB" transform="translate(418,617)"/>
<path d="M0 0 C3.63 0.33 7.26 0.66 11 1 C11 1.33 11 1.66 11 2 C6.23692563 2.95261487 1.8333472 3.08333357 -3 3 C-2.01 2.67 -1.02 2.34 0 2 C0 1.34 0 0.68 0 0 Z " fill="#2E2E30" transform="translate(793,383)"/>
<path d="M0 0 C4.21912747 0.4794463 6.79663178 1.16625119 10 4 C9.01 4.33 8.02 4.66 7 5 C7 4.34 7 3.68 7 3 C5.35 3.33 3.7 3.66 2 4 C2 3.01 2 2.02 2 1 C1.34 0.67 0.68 0.34 0 0 Z " fill="#474748" transform="translate(563,564)"/>
<path d="M0 0 C0.33 0.66 0.66 1.32 1 2 C-4.41538462 5.07692308 -4.41538462 5.07692308 -7.375 4.6875 C-7.91125 4.460625 -8.4475 4.23375 -9 4 C-6.06171403 1.49701566 -3.82097239 0.53069061 0 0 Z " fill="#060607" transform="translate(635,476)"/>
<path d="M0 0 C0.33 0.66 0.66 1.32 1 2 C1.66 2.33 2.32 2.66 3 3 C0.03 5.475 0.03 5.475 -3 8 C-3 4.42424104 -1.91159393 2.94704065 0 0 Z " fill="#454547" transform="translate(999,639)"/>
<path d="M0 0 C2.31 0 4.62 0 7 0 C7 0.33 7 0.66 7 1 C5.35 1.33 3.7 1.66 2 2 C2.66 2.66 3.32 3.32 4 4 C2.02 4 0.04 4 -2 4 C-1.34 2.68 -0.68 1.36 0 0 Z " fill="#1D1D1E" transform="translate(542,559)"/>
<path d="M0 0 C1.32 1.32 2.64 2.64 4 4 C3.34 5.65 2.68 7.3 2 9 C0.14223235 5.86501708 -0.20140476 3.62528568 0 0 Z " fill="#262628" transform="translate(965,535)"/>
<path d="M0 0 C2.64 0.33 5.28 0.66 8 1 C4.93882432 3.62386487 4.26826873 4 0 4 C0 2.68 0 1.36 0 0 Z " fill="#404042" transform="translate(591,416)"/>
<path d="M0 0 C-0.99 1.485 -0.99 1.485 -2 3 C-4.1640625 3.29296875 -4.1640625 3.29296875 -6.625 3.1875 C-7.44226563 3.16042969 -8.25953125 3.13335937 -9.1015625 3.10546875 C-9.72804688 3.07066406 -10.35453125 3.03585937 -11 3 C-6.98213116 0.99106558 -4.56087444 -0.12002301 0 0 Z " fill="#030305" transform="translate(718,395)"/>
<path d="M0 0 C2.475 0.99 2.475 0.99 5 2 C4.34 3.32 3.68 4.64 3 6 C2.34 6 1.68 6 1 6 C0.67 4.02 0.34 2.04 0 0 Z " fill="#2F2F30" transform="translate(432,744)"/>
<path d="M0 0 C2.31 0 4.62 0 7 0 C7.33 0.99 7.66 1.98 8 3 C5.6568787 2.74438677 3.32156597 2.40729228 1 2 C0.67 1.34 0.34 0.68 0 0 Z " fill="#151517" transform="translate(691,672)"/>
<path d="M0 0 C0.33 0.66 0.66 1.32 1 2 C0.67 2.66 0.34 3.32 0 4 C0.66 4 1.32 4 2 4 C1.67 4.99 1.34 5.98 1 7 C0.01 6.67 -0.98 6.34 -2 6 C-2.33 6.66 -2.66 7.32 -3 8 C-3 6.68 -3 5.36 -3 4 C-2.34 4 -1.68 4 -1 4 C-0.67 2.68 -0.34 1.36 0 0 Z " fill="#3D3D3F" transform="translate(556,503)"/>
<path d="M0 0 C0.99 0 1.98 0 3 0 C2.67 1.65 2.34 3.3 2 5 C0.68 4.67 -0.64 4.34 -2 4 C-1.34 2.68 -0.68 1.36 0 0 Z " fill="#121213" transform="translate(569,477)"/>
<path d="M0 0 C0.66 0.33 1.32 0.66 2 1 C2 1.66 2 2.32 2 3 C2.99 3.33 3.98 3.66 5 4 C-2.42857143 4.28571429 -2.42857143 4.28571429 -6 2 C-4.02 2 -2.04 2 0 2 C0 1.34 0 0.68 0 0 Z " fill="#2D2D30" transform="translate(899,474)"/>
<path d="M0 0 C0.66 0.33 1.32 0.66 2 1 C-1.75 6.875 -1.75 6.875 -4 8 C-3.50168276 4.31245243 -2.89932357 2.39509338 0 0 Z " fill="#505052" transform="translate(439,706)"/>
<path d="M0 0 C0.66 0 1.32 0 2 0 C1.67 2.31 1.34 4.62 1 7 C0.34 7 -0.32 7 -1 7 C-1.04254356 5.00045254 -1.04080783 2.99958364 -1 1 C-0.67 0.67 -0.34 0.34 0 0 Z " fill="#070708" transform="translate(973,612)"/>
<path d="M0 0 C0.33 0 0.66 0 1 0 C1 1.98 1 3.96 1 6 C-0.98 6.99 -0.98 6.99 -3 8 C-2.67 6.35 -2.34 4.7 -2 3 C-1.34 3 -0.68 3 0 3 C0 2.01 0 1.02 0 0 Z " fill="#161616" transform="translate(519,590)"/>
<path d="M0 0 C0.66 0.33 1.32 0.66 2 1 C2 1.99 2 2.98 2 4 C1.01 4.33 0.02 4.66 -1 5 C-1 4.34 -1 3.68 -1 3 C-2.98 3.33 -4.96 3.66 -7 4 C-4.66603411 2.44402274 -2.57343171 1.07918104 0 0 Z " fill="#C8C8C9" transform="translate(474,542)"/>
<path d="M0 0 C0.33 0 0.66 0 1 0 C1.22036864 3.85645121 0.60355101 6.49223216 -1 10 C-1.66 10 -2.32 10 -3 10 C-2.67 7.69 -2.34 5.38 -2 3 C-1.34 3 -0.68 3 0 3 C0 2.01 0 1.02 0 0 Z " fill="#5F5F60" transform="translate(568,473)"/>
</svg>
